<svg width="375" height="356" viewBox="0 0 375 356" fill="none" xmlns="http://www.w3.org/2000/svg">
<path d="M416.651 163.94C436.271 185.38 441.408 217.456 438.043 244.294C434.679 271.077 422.871 292.677 408.895 310.876C394.974 329.019 378.889 343.763 359.61 350.619C340.33 357.476 317.852 356.451 288.075 354.724C258.299 352.997 221.28 350.517 199.93 331.665C178.61 312.752 172.962 277.503 182.432 247.965C191.958 218.428 216.607 194.558 243.47 174.307C270.333 154.056 299.429 137.371 331.086 134.449C362.745 131.595 396.972 142.448 416.651 163.94Z" fill="#F78C64" fill-opacity="0.29"/>
<path d="M125.2 37.1368C152.777 51.7969 187.474 71.5001 192.369 95.9301C197.263 120.36 172.396 149.563 144.833 172.419C117.27 195.274 87.0113 211.939 61.2934 207.603C35.5755 203.267 14.3766 177.956 -12.5861 155.057C-39.4715 132.149 -72.047 111.699 -78.6873 84.8133C-85.3277 57.9275 -65.9555 24.6517 -39.0664 9.99511C-12.1773 -4.66146 22.3059 -0.698787 49.7585 6.08574C77.211 12.8703 97.6329 22.4944 125.2 37.1368Z" fill="#EFEFEF"/>
</svg>
