<svg width="375" height="542" viewBox="0 0 375 542" fill="none" xmlns="http://www.w3.org/2000/svg">
<path d="M351.653 508.934C349.877 509.128 348.3 508.592 346.725 507.637C345.414 506.842 344.141 505.781 342.772 504.641C342.479 504.397 342.182 504.15 341.88 503.901C338.473 501.096 334.465 498.164 328.48 498.501C322.76 498.823 310.532 497.667 299.56 494.887C294.076 493.498 288.94 491.711 285.101 489.52C281.236 487.314 278.821 484.778 278.505 481.945C277.455 472.546 278.683 463.156 280.607 453.472C281.765 447.643 284.066 442.078 288.413 438.162C291.834 435.081 296.029 431.918 300.372 428.644C300.756 428.354 301.142 428.063 301.528 427.772C306.268 424.194 311.113 420.484 315.202 416.635C315.921 415.958 316.719 415.165 317.596 414.293C320.453 411.454 324.153 407.777 328.708 404.549C334.647 400.338 341.976 396.944 350.626 397.266C353.882 397.388 357.049 398.413 359.918 400.018C364.717 402.702 370.134 406.603 374.655 410.559C376.915 412.536 378.944 414.521 380.557 416.368C382.176 418.222 383.351 419.911 383.932 421.296C385.346 424.684 387.962 431.578 389.928 438.753C390.911 442.341 391.729 445.988 392.154 449.297C392.581 452.617 392.607 455.55 392.04 457.731C390.87 462.231 387.769 469.986 384.173 477.551C380.573 485.123 376.512 492.426 373.443 496.055C367.26 503.338 359.204 508.104 351.653 508.934Z" stroke="#DCD6F7"/>
<path d="M344.823 508.93C343.047 509.124 341.47 508.588 339.895 507.633C338.584 506.838 337.311 505.777 335.942 504.637C335.649 504.393 335.352 504.146 335.05 503.897C331.643 501.092 327.635 498.16 321.65 498.497C315.93 498.819 303.702 497.663 292.73 494.883C287.246 493.494 282.11 491.707 278.271 489.516C274.406 487.31 271.991 484.774 271.675 481.941C270.625 472.542 271.853 463.152 273.777 453.468C274.935 447.639 277.236 442.074 281.583 438.158C285.004 435.077 289.199 431.914 293.542 428.64C293.926 428.35 294.312 428.059 294.698 427.768C299.438 424.19 304.283 420.48 308.372 416.631C309.091 415.954 309.889 415.161 310.766 414.289C313.623 411.45 317.323 407.773 321.878 404.545C327.817 400.334 335.146 396.94 343.796 397.262C347.052 397.384 350.219 398.409 353.088 400.014C357.887 402.699 363.304 406.599 367.825 410.555C370.085 412.532 372.114 414.517 373.727 416.365C375.346 418.219 376.521 419.907 377.102 421.292C378.516 424.68 381.132 431.574 383.098 438.749C384.081 442.337 384.899 445.984 385.324 449.294C385.751 452.613 385.777 455.546 385.21 457.727C384.04 462.228 380.939 469.982 377.343 477.547C373.743 485.119 369.682 492.423 366.613 496.051C360.429 503.334 352.374 508.101 344.823 508.93Z" stroke="#DCD6F7"/>
<path d="M281.822 17.2576C282.879 17.2208 283.711 17.5913 284.495 18.2084C285.158 18.731 285.761 19.4063 286.428 20.1542C286.571 20.3155 286.718 20.4801 286.869 20.6473C288.551 22.5084 290.624 24.5146 294.409 24.5776C297.918 24.636 305.18 25.87 311.441 28.0266C314.572 29.105 317.414 30.4013 319.403 31.8713C321.413 33.3561 322.417 34.9112 322.213 36.5032C321.568 41.5218 319.846 46.4675 317.671 51.5186C315.592 56.3434 312.557 60.6844 308.201 63.4331C306.045 64.7932 303.638 66.1663 301.163 67.5784C300.561 67.9216 299.956 68.2672 299.349 68.6154C296.251 70.3919 293.123 72.235 290.354 74.1763C289.813 74.555 289.209 74.9996 288.545 75.488C286.608 76.9133 284.164 78.7113 281.33 80.329C277.534 82.4961 273.104 84.2968 268.407 84.3802C264.922 84.442 261.58 82.9526 258.863 80.6606C256.631 78.7773 254.4 76.4762 252.662 74.261C250.907 72.024 249.714 69.9481 249.46 68.5064C249.095 66.4078 248.511 62.1445 248.363 57.7423C248.289 55.5411 248.324 53.3156 248.547 51.3139C248.771 49.3043 249.181 47.5589 249.832 46.2937C251.198 43.6412 254.216 39.1073 257.513 34.7038C260.814 30.2957 264.35 26.0786 266.741 24.0344C271.564 19.9221 277.145 17.422 281.822 17.2576Z" stroke="#DCD6F7"/>
<path d="M285.984 17.5623C287.041 17.5255 287.873 17.896 288.657 18.5131C289.32 19.0356 289.923 19.711 290.59 20.4588C290.734 20.6201 290.88 20.7848 291.032 20.952C292.713 22.8131 294.786 24.8193 298.571 24.8823C302.081 24.9407 309.342 26.1747 315.603 28.3313C318.734 29.4097 321.576 30.706 323.565 32.1759C325.575 33.6608 326.58 35.2159 326.375 36.8079C325.73 41.8264 324.008 46.7722 321.833 51.8233C319.755 56.6481 316.719 60.9891 312.363 63.7377C310.207 65.0979 307.8 66.471 305.325 67.8831C304.723 68.2263 304.118 68.5718 303.511 68.9201C300.413 70.6966 297.285 72.5397 294.516 74.481C293.976 74.8597 293.371 75.3043 292.708 75.7927C290.77 77.218 288.327 79.0159 285.493 80.6337C281.696 82.8008 277.266 84.6014 272.569 84.6848C269.084 84.7467 265.742 83.2573 263.025 80.9653C260.793 79.082 258.562 76.7809 256.824 74.5657C255.069 72.3287 253.876 70.2528 253.622 68.8111C253.257 66.7125 252.673 62.4492 252.525 58.047C252.451 55.8458 252.486 53.6203 252.709 51.6186C252.933 49.609 253.343 47.8636 253.994 46.5984C255.36 43.9459 258.378 39.412 261.675 35.0085C264.976 30.6004 268.512 26.3833 270.903 24.3391C275.726 20.2267 281.308 17.7267 285.984 17.5623Z" stroke="#DCD6F7"/>
<path d="M336.825 504.93C335.049 505.124 333.472 504.588 331.897 503.633C330.586 502.838 329.313 501.777 327.944 500.637C327.651 500.393 327.354 500.146 327.052 499.897C323.645 497.092 319.637 494.16 313.652 494.497C307.932 494.819 295.704 493.663 284.732 490.883C279.248 489.494 274.112 487.707 270.273 485.516C266.408 483.31 263.993 480.774 263.677 477.941C262.627 468.542 263.855 459.152 265.779 449.468C266.936 443.639 269.238 438.074 273.585 434.158C277.006 431.077 281.201 427.914 285.544 424.64C285.928 424.35 286.313 424.059 286.7 423.768C291.44 420.19 296.284 416.48 300.374 412.631C301.092 411.954 301.891 411.161 302.768 410.289C305.625 407.45 309.325 403.773 313.88 400.545C319.819 396.334 327.148 392.94 335.798 393.262C339.054 393.384 342.221 394.409 345.09 396.014C349.889 398.699 355.306 402.599 359.827 406.555C362.087 408.532 364.116 410.517 365.729 412.365C367.348 414.219 368.523 415.907 369.104 417.292C370.518 420.68 373.134 427.574 375.1 434.749C376.083 438.337 376.901 441.984 377.326 445.294C377.753 448.613 377.779 451.546 377.212 453.727C376.042 458.228 372.941 465.982 369.345 473.547C365.745 481.119 361.684 488.423 358.615 492.051C352.431 499.334 344.376 504.101 336.825 504.93Z" stroke="#DCD6F7"/>
<path d="M336.825 511.93C335.049 512.124 333.472 511.588 331.897 510.633C330.586 509.838 329.313 508.777 327.944 507.637C327.651 507.393 327.354 507.146 327.052 506.897C323.645 504.092 319.637 501.16 313.652 501.497C307.932 501.819 295.704 500.663 284.732 497.883C279.248 496.494 274.112 494.707 270.273 492.516C266.408 490.31 263.993 487.774 263.677 484.941C262.627 475.542 263.855 466.152 265.779 456.468C266.936 450.639 269.238 445.074 273.585 441.158C277.006 438.077 281.201 434.914 285.544 431.64C285.928 431.35 286.313 431.059 286.7 430.768C291.44 427.19 296.284 423.48 300.374 419.631C301.092 418.954 301.891 418.161 302.768 417.289C305.625 414.45 309.325 410.773 313.88 407.545C319.819 403.334 327.148 399.94 335.798 400.262C339.054 400.384 342.221 401.409 345.09 403.014C349.889 405.699 355.306 409.599 359.827 413.555C362.087 415.532 364.116 417.517 365.729 419.365C367.348 421.219 368.523 422.907 369.104 424.292C370.518 427.68 373.134 434.574 375.1 441.749C376.083 445.337 376.901 448.984 377.326 452.294C377.753 455.613 377.779 458.546 377.212 460.727C376.042 465.228 372.941 472.982 369.345 480.547C365.745 488.119 361.684 495.423 358.615 499.051C352.431 506.334 344.376 511.101 336.825 511.93Z" stroke="#DCD6F7"/>
<path d="M89.5207 331.343C89.0383 332.883 88.8989 334.829 88.9799 337.044C89.061 339.264 89.365 341.785 89.7898 344.49C90.2587 347.476 90.8828 350.728 91.5225 354.062C92.0357 356.737 92.559 359.464 93.0204 362.148C94.0644 368.222 94.807 374.15 94.4866 379.077C94.1655 384.014 92.7849 387.825 89.7071 389.827C83.2101 394.053 72.4822 399.832 61.3458 404.785C50.1975 409.742 38.6996 413.844 30.6476 414.754C22.626 415.647 17.033 413.976 12.0689 411.114C9.57417 409.676 7.231 407.933 4.80488 406.041C4.22976 405.592 3.64956 405.135 3.06174 404.672C1.17766 403.187 -0.784793 401.641 -2.9097 400.121C-5.67786 398.141 -7.17764 396.779 -7.94212 395.466C-8.68364 394.192 -8.76758 392.901 -8.49499 390.947C-8.37205 390.066 -8.17833 389.063 -7.9518 387.891C-7.16919 383.841 -5.99505 377.766 -5.99505 367.65C-5.99504 361.061 -7.64446 356.301 -10.148 352.602C-12.6437 348.914 -15.9629 346.32 -19.2245 344.03C-19.8791 343.571 -20.5294 343.125 -21.1699 342.685C-23.7478 340.917 -26.1675 339.257 -28.0809 337.264C-30.4347 334.812 -31.9946 331.877 -31.9951 327.65C-31.9952 326.832 -31.9972 326.022 -31.9992 325.221C-32.0339 311.376 -32.0623 300.024 -21.9692 289.696C-19.9875 287.668 -17.5616 286.154 -15.0079 284.717C-14.4326 284.393 -13.8497 284.072 -13.2642 283.75C-11.2676 282.652 -9.24095 281.537 -7.3838 280.219C-3.93791 277.773 -0.552483 274.518 2.90654 271.035C3.66404 270.273 4.42505 269.499 5.19137 268.72C7.93341 265.932 10.7435 263.076 13.7046 260.402C21.2834 253.557 29.7517 248.005 40.2976 248.015C43.8902 248.019 49.4258 249.418 56.1232 251.976C62.8039 254.528 70.5884 258.212 78.6567 262.737C94.7999 271.792 112.032 284.19 123.817 297.582C124.959 298.879 126.111 300.236 126.944 301.666C127.773 303.091 128.262 304.55 128.12 306.055C127.85 308.909 125.657 311.279 122.265 313.401C118.887 315.514 114.443 317.307 109.887 319.058C109.313 319.278 108.737 319.498 108.161 319.718C104.189 321.235 100.232 322.747 96.9897 324.426C93.3041 326.336 90.3951 328.533 89.5207 331.343ZM89.5207 331.343C89.5208 331.343 89.5208 331.343 89.5209 331.343L90.0017 331.518L89.5206 331.344C89.5206 331.343 89.5207 331.343 89.5207 331.343Z" stroke="#FFD5BE"/>
<path d="M84.4934 345.589C84.0109 347.129 83.8716 349.075 83.9525 351.29C84.0336 353.51 84.3377 356.031 84.7625 358.736C85.2314 361.722 85.8554 364.974 86.4952 368.308C87.0083 370.983 87.5316 373.71 87.9931 376.394C89.037 382.468 89.7797 388.396 89.4592 393.323C89.1381 398.26 87.7576 402.071 84.6797 404.073C78.1828 408.299 67.4548 414.078 56.3185 419.031C45.1702 423.988 33.6723 428.09 25.6203 429C17.5986 429.893 12.0057 428.222 7.04157 425.36C4.54683 423.922 2.20366 422.179 -0.222461 420.287C-0.797586 419.838 -1.37778 419.381 -1.9656 418.918C-3.84968 417.433 -5.81214 415.887 -7.93705 414.368C-10.7052 412.387 -12.205 411.025 -12.9695 409.712C-13.711 408.438 -13.7949 407.147 -13.5223 405.193C-13.3994 404.312 -13.2057 403.309 -12.9791 402.137C-12.1965 398.088 -11.0224 392.012 -11.0224 381.896C-11.0224 375.307 -12.6718 370.547 -15.1753 366.848C-17.6711 363.16 -20.9902 360.566 -24.2518 358.276C-24.9065 357.817 -25.5567 357.371 -26.1972 356.931C-28.7751 355.163 -31.1948 353.503 -33.1083 351.51C-35.462 349.058 -37.0219 346.123 -37.0224 341.896C-37.0225 341.078 -37.0245 340.269 -37.0265 339.468C-37.0612 325.622 -37.0897 314.27 -26.9965 303.942C-25.0148 301.914 -22.5889 300.4 -20.0352 298.963C-19.4599 298.639 -18.877 298.318 -18.2915 297.996C-16.295 296.898 -14.2683 295.783 -12.4111 294.465C-8.96525 292.019 -5.57983 288.764 -2.1208 285.282C-1.36331 284.519 -0.602298 283.745 0.164031 282.966C2.90606 280.179 5.71619 277.322 8.67725 274.648C16.256 267.803 24.7243 262.251 35.2703 262.262C38.8629 262.265 44.3984 263.665 51.0958 266.222C57.7766 268.774 65.561 272.458 73.6294 276.983C89.7726 286.038 107.004 298.437 118.79 311.828C119.931 313.125 121.084 314.482 121.916 315.912C122.746 317.337 123.234 318.796 123.092 320.301C122.823 323.155 120.629 325.525 117.237 327.647C113.86 329.76 109.416 331.553 104.859 333.304C104.285 333.524 103.709 333.744 103.134 333.964C99.1614 335.481 95.2042 336.993 91.9624 338.672C88.2767 340.582 85.3678 342.779 84.4934 345.589ZM84.4934 345.589C84.4934 345.589 84.4935 345.589 84.4935 345.589L84.9744 345.764L84.4932 345.59C84.4933 345.59 84.4933 345.589 84.4934 345.589Z" stroke="#FFD5BE"/>
<path d="M84.4953 358.589C84.0129 360.129 83.8736 362.075 83.9545 364.29C84.0356 366.51 84.3397 369.031 84.7644 371.736C85.2333 374.722 85.8574 377.974 86.4971 381.308C87.0103 383.983 87.5336 386.71 87.995 389.394C89.039 395.468 89.7816 401.396 89.4612 406.323C89.1401 411.26 87.7595 415.071 84.6817 417.073C78.1847 421.299 67.4568 427.078 56.3204 432.031C45.1721 436.988 33.6742 441.09 25.6222 442C17.6006 442.893 12.0076 441.222 7.04352 438.36C4.54878 436.922 2.20561 435.179 -0.220508 433.287C-0.795633 432.838 -1.37583 432.381 -1.96365 431.918C-3.84773 430.433 -5.81018 428.887 -7.9351 427.368C-10.7033 425.387 -12.203 424.025 -12.9675 422.712C-13.709 421.438 -13.793 420.147 -13.5204 418.193C-13.3974 417.312 -13.2037 416.309 -12.9772 415.137C-12.1946 411.088 -11.0204 405.012 -11.0204 394.896C-11.0204 388.307 -12.6699 383.547 -15.1733 379.848C-17.6691 376.16 -20.9882 373.566 -24.2498 371.276C-24.9045 370.817 -25.5548 370.371 -26.1953 369.931C-28.7732 368.163 -31.1929 366.503 -33.1063 364.51C-35.46 362.058 -37.02 359.123 -37.0205 354.896C-37.0205 354.078 -37.0226 353.269 -37.0246 352.468C-37.0593 338.622 -37.0877 327.27 -26.9946 316.942C-25.0129 314.914 -22.587 313.4 -20.0333 311.963C-19.458 311.639 -18.8751 311.318 -18.2895 310.996C-16.293 309.898 -14.2663 308.783 -12.4092 307.465C-8.9633 305.019 -5.57787 301.764 -2.11885 298.282C-1.36135 297.519 -0.600345 296.745 0.165984 295.966C2.90802 293.179 5.71814 290.322 8.6792 287.648C16.258 280.803 24.7263 275.251 35.2723 275.262C38.8649 275.265 44.4004 276.665 51.0978 279.222C57.7785 281.774 65.563 285.458 73.6313 289.983C89.7745 299.038 107.006 311.437 118.792 324.828C119.933 326.125 121.086 327.482 121.918 328.912C122.748 330.337 123.236 331.796 123.094 333.301C122.825 336.155 120.631 338.525 117.239 340.647C113.862 342.76 109.418 344.553 104.861 346.304C104.287 346.524 103.711 346.744 103.136 346.964C99.1634 348.481 95.2061 349.993 91.9643 351.672C88.2787 353.582 85.3697 355.779 84.4953 358.589ZM84.4953 358.589C84.4954 358.589 84.4954 358.589 84.4955 358.589L84.9763 358.764L84.4952 358.59C84.4952 358.59 84.4953 358.589 84.4953 358.589Z" stroke="#FFD5BE"/>
<path d="M186.086 262.205C182.043 258.179 177.671 250.037 174.017 241.569C170.371 233.119 167.48 224.439 166.371 219.406C165.28 214.458 166.107 206.576 168.832 198.204C171.552 189.847 176.139 181.078 182.489 174.355C187.865 168.662 194.336 166.952 201.424 166.161C203.588 165.919 205.786 165.765 208.026 165.608C209.475 165.507 210.942 165.404 212.43 165.275C216.196 164.95 220.04 164.462 223.875 163.411C229.181 161.957 233.474 158.355 237.376 154.666C242.987 149.362 251.35 142.13 260.539 136.516C269.746 130.891 279.691 126.946 288.493 128.079C301.095 129.702 327.166 134.939 342.243 158.727C343.983 161.472 345.213 164.518 345.883 167.698C347.616 175.922 348.462 186.615 348.3 196.375C348.219 201.253 347.887 205.888 347.29 209.857C346.692 213.836 345.833 217.108 344.721 219.283C342.175 224.233 336.752 233.994 330.39 243.266C327.209 247.903 323.799 252.408 320.403 256.127C316.999 259.854 313.639 262.755 310.564 264.223C304.284 267.224 292.456 271.108 280.39 274.222C268.316 277.339 256.089 279.663 248.998 279.578C241.895 279.481 228.191 277.169 215.212 273.844C208.728 272.183 202.442 270.274 197.267 268.271C192.07 266.258 188.069 264.179 186.086 262.205Z" stroke="#FFD5BE"/>
<path d="M179.289 252.4C175.781 247.878 172.458 239.231 169.888 230.355C167.324 221.497 165.536 212.511 165.063 207.374C164.597 202.323 166.399 194.615 170.144 186.667C173.882 178.734 179.523 170.637 186.658 164.798C192.7 159.854 199.331 159.004 206.461 159.147C208.637 159.19 210.835 159.324 213.075 159.462C214.527 159.55 215.996 159.64 217.49 159.707C221.266 159.876 225.14 159.895 229.075 159.353C234.513 158.605 239.218 155.594 243.546 152.446C249.772 147.919 258.968 141.839 268.78 137.472C278.613 133.096 288.968 130.483 297.558 132.758C309.854 136.015 335.057 144.616 347.051 170.176C348.437 173.13 349.279 176.317 349.547 179.563C350.241 187.947 349.749 198.662 348.374 208.318C347.686 213.145 346.779 217.697 345.693 221.555C344.605 225.422 343.347 228.553 341.973 230.565C338.832 235.142 332.238 244.114 324.773 252.48C321.041 256.662 317.098 260.686 313.266 263.93C309.426 267.181 305.733 269.619 302.5 270.674C295.898 272.829 283.683 275.135 271.328 276.647C258.964 278.16 246.547 278.866 239.525 277.855C232.492 276.831 219.188 272.746 206.728 267.751C200.504 265.256 194.507 262.541 189.624 259.878C184.719 257.203 181.011 254.617 179.289 252.4Z" stroke="#DCD6F7"/>
<path d="M194.811 271.773C190.262 268.361 184.829 260.92 180.063 253.054C175.307 245.205 171.267 237.021 169.487 232.194C167.737 227.449 167.488 219.526 169.052 210.847C170.613 202.184 173.968 192.847 179.345 185.286C183.897 178.883 190.073 176.269 196.986 174.477C199.096 173.93 201.252 173.465 203.449 172.99C204.87 172.684 206.309 172.373 207.765 172.034C211.45 171.176 215.191 170.146 218.846 168.56C223.904 166.365 227.668 162.186 231.032 157.978C235.87 151.927 243.172 143.575 251.511 136.708C259.867 129.827 269.181 124.505 278.051 124.376C290.751 124.19 317.279 125.667 335.434 147.079C337.529 149.55 339.159 152.391 340.253 155.444C343.084 163.342 345.371 173.811 346.533 183.499C347.114 188.342 347.413 192.979 347.36 196.995C347.307 201.02 346.9 204.382 346.093 206.695C344.243 211.959 340.195 222.397 335.151 232.485C332.629 237.53 329.863 242.477 327.003 246.643C324.137 250.818 321.203 254.168 318.357 256.061C312.544 259.925 301.357 265.455 289.83 270.256C278.295 275.061 266.501 279.101 259.468 280.027C252.42 280.941 238.536 280.601 225.232 279.155C218.585 278.433 212.102 277.437 206.706 276.189C201.286 274.936 197.043 273.446 194.811 271.773Z" stroke="#FFD5BE"/>
<path d="M160.155 206.112C163.396 203.028 166.979 196.705 170.008 190.095C173.029 183.503 175.458 176.719 176.418 172.78C177.358 168.924 176.85 162.715 174.85 156.072C172.854 149.444 169.397 142.461 164.521 137.057C160.596 132.708 155.828 131.177 150.568 130.392C148.63 130.102 146.641 129.916 144.605 129.726C143.866 129.657 143.122 129.587 142.371 129.512C139.559 129.229 136.679 128.868 133.803 128.156C128.446 126.828 124.225 123.06 120.371 119.336C115.879 114.996 109.564 109.463 102.694 105.195C95.8076 100.917 88.4455 97.9623 81.8364 98.6575C72.034 99.6887 51.9177 103.238 39.5818 120.931C37.7289 123.588 36.4442 126.604 35.7567 129.774C34.3535 136.244 33.5796 144.445 33.5786 151.899C33.5781 155.625 33.7707 159.155 34.1718 162.182C34.5741 165.218 35.1816 167.711 35.9916 169.387C37.9105 173.334 42.0139 181.125 46.8651 188.549C49.2908 192.261 51.8977 195.871 54.5066 198.861C57.1227 201.859 59.71 204.195 62.0906 205.401C66.9806 207.877 76.2312 211.155 85.689 213.831C95.1549 216.51 104.743 218.563 110.32 218.627C115.91 218.681 126.745 217.111 137.035 214.728C142.174 213.538 147.16 212.149 151.269 210.667C155.403 209.176 158.574 207.615 160.155 206.112Z" stroke="#FFD5BE"/>
<path d="M165.679 198.517C168.51 195.034 171.276 188.295 173.458 181.343C175.633 174.41 177.198 167.364 177.66 163.331C178.112 159.384 176.835 153.293 174.024 146.966C171.22 140.653 166.922 134.178 161.413 129.456C156.978 125.655 152.057 124.76 146.741 124.669C144.783 124.636 142.789 124.711 140.746 124.788C140.004 124.816 139.255 124.845 138.5 124.868C135.675 124.956 132.774 124.973 129.832 124.642C124.358 124.026 119.704 120.841 115.418 117.652C110.423 113.935 103.47 109.272 96.1245 105.937C88.7619 102.594 81.0917 100.626 74.6228 102.179C65.0295 104.483 45.5217 110.633 35.4884 129.789C33.9795 132.67 33.0796 135.834 32.7923 139.073C32.2068 145.673 32.4604 153.906 33.3875 161.298C33.8508 164.992 34.4813 168.467 35.2558 171.416C36.0327 174.375 36.9455 176.767 37.9573 178.323C40.3518 181.987 45.3916 189.178 51.1272 195.907C53.9953 199.271 57.0304 202.512 59.9901 205.136C62.958 207.767 65.815 209.746 68.3263 210.631C73.4848 212.448 83.0678 214.489 92.7816 215.908C102.504 217.327 112.269 218.11 117.808 217.444C123.359 216.767 133.911 213.794 143.821 210.085C148.77 208.233 153.541 206.204 157.433 204.196C161.347 202.177 164.298 200.215 165.679 198.517Z" stroke="#FFD5BE"/>
<path d="M153.123 213.488C156.751 210.895 161.156 205.143 165.051 199.028C168.936 192.93 172.261 186.557 173.746 182.793C175.199 179.108 175.537 172.887 174.456 166.024C173.378 159.176 170.901 151.768 166.804 145.723C163.507 140.858 158.992 138.663 153.889 137.137C152.009 136.575 150.065 136.108 148.074 135.629C147.352 135.456 146.624 135.281 145.891 135.099C143.145 134.42 140.342 133.652 137.59 132.537C132.464 130.461 128.796 126.128 125.483 121.892C121.623 116.955 116.119 110.577 109.894 105.373C103.654 100.156 96.7633 96.1829 90.124 95.931C80.2769 95.5574 59.8747 96.2104 45.261 111.976C43.0656 114.344 41.3844 117.149 40.2739 120.191C38.0077 126.398 36.1301 134.409 35.1191 141.791C34.6137 145.48 34.3262 149.003 34.3132 152.058C34.3002 155.122 34.5639 157.677 35.1391 159.452C36.5046 163.634 39.5124 171.934 43.3107 179.975C45.2099 183.996 47.3023 187.943 49.4808 191.275C51.6653 194.616 53.9109 197.298 56.1051 198.831C60.6122 201.979 69.3291 206.541 78.3326 210.537C87.3435 214.537 96.5608 217.934 102.075 218.791C107.603 219.639 118.547 219.627 129.06 218.731C134.311 218.284 139.436 217.618 143.706 216.735C148.002 215.846 151.354 214.752 153.123 213.488Z" stroke="#DCD6F7"/>
<path d="M148.783 217.143C152.597 214.846 157.424 209.463 161.771 203.676C166.106 197.905 169.903 191.816 171.669 188.181C173.397 184.624 174.205 178.449 173.648 171.52C173.092 164.607 171.183 157.025 167.557 150.672C164.638 145.558 160.302 143.011 155.33 141.084C153.498 140.374 151.596 139.754 149.648 139.118C148.941 138.887 148.227 138.655 147.509 138.415C144.822 137.519 142.086 136.531 139.427 135.2C134.477 132.723 131.148 128.113 128.167 123.626C124.692 118.397 119.688 111.6 113.875 105.916C108.05 100.219 101.481 95.7088 94.8804 94.9294C85.0917 93.7736 64.703 92.8015 48.9392 107.354C46.5695 109.542 44.6793 112.207 43.3406 115.154C40.6114 121.162 38.133 128.999 36.5662 136.277C35.783 139.915 35.2296 143.404 34.9853 146.448C34.7403 149.501 34.8097 152.069 35.2486 153.884C36.2931 158.161 38.663 166.676 41.8405 174.995C43.4294 179.155 45.2164 183.257 47.1359 186.752C49.0607 190.256 51.0963 193.109 53.1678 194.812C57.4228 198.309 65.7677 203.55 74.4413 208.251C83.122 212.956 92.0541 217.076 97.4867 218.368C102.934 219.655 113.846 220.513 124.395 220.456C129.664 220.428 134.824 220.172 139.149 219.631C143.498 219.086 146.923 218.262 148.783 217.143Z" stroke="#DCD6F7"/>
<path d="M155.772 210.945C159.269 208.168 163.386 202.198 166.978 195.89C170.559 189.6 173.567 183.064 174.866 179.228C176.137 175.473 176.169 169.243 174.754 162.444C173.342 155.66 170.506 148.389 166.118 142.562C162.586 137.872 157.97 135.912 152.799 134.651C150.894 134.186 148.929 133.819 146.917 133.444C146.188 133.308 145.452 133.17 144.711 133.027C141.935 132.489 139.098 131.867 136.296 130.895C131.074 129.084 127.198 124.946 123.682 120.885C119.585 116.153 113.775 110.066 107.303 105.188C100.815 100.3 93.7391 96.6855 87.0959 96.7753C77.2428 96.9086 56.8978 98.6098 43.0745 115.107C40.9984 117.585 39.457 120.472 38.4971 123.566C36.5376 129.883 35.0545 137.98 34.4062 145.405C34.0821 149.116 33.9674 152.65 34.104 155.701C34.241 158.762 34.6296 161.301 35.291 163.043C36.8594 167.15 40.2699 175.285 44.4573 183.121C46.5511 187.039 48.8341 190.874 51.173 194.089C53.5184 197.314 55.8925 199.877 58.1589 201.295C62.8146 204.207 71.7438 208.315 80.9317 211.844C90.1273 215.375 99.4995 218.294 105.048 218.866C110.611 219.429 121.54 218.854 131.996 217.419C137.218 216.702 142.305 215.774 146.527 214.672C150.773 213.563 154.067 212.298 155.772 210.945Z" stroke="#DCD6F7"/>
<path d="M140.365 222.794C144.453 221.062 149.963 216.417 155.052 211.305C160.127 206.207 164.713 200.717 166.953 197.369C169.147 194.092 170.783 188.092 171.17 181.152C171.557 174.227 170.694 166.447 167.964 159.639C165.765 154.158 161.815 151.018 157.149 148.401C155.433 147.439 153.635 146.555 151.793 145.649C151.122 145.319 150.444 144.986 149.763 144.645C147.223 143.374 144.646 142.005 142.193 140.308C137.635 137.154 134.964 132.118 132.621 127.252C129.889 121.579 125.854 114.136 120.868 107.679C115.87 101.208 109.976 95.8067 103.544 94.0955C94.0076 91.5584 73.9529 87.6956 56.3719 99.857C53.7228 101.689 51.4838 104.066 49.7542 106.803C46.2386 112.365 42.7244 119.771 40.1883 126.752C38.9206 130.242 37.9005 133.616 37.2467 136.595C36.5909 139.582 36.3119 142.133 36.5005 143.992C36.9551 148.377 38.1484 157.146 40.1678 165.837C41.1776 170.183 42.3915 174.499 43.8188 178.233C45.2501 181.977 46.8793 185.092 48.7002 187.073C52.4403 191.142 59.9941 197.52 67.9467 203.41C75.9058 209.304 84.1934 214.655 89.3985 216.708C94.619 218.757 105.309 221.159 115.764 222.604C120.985 223.326 126.13 223.807 130.486 223.886C134.868 223.966 138.372 223.637 140.365 222.794Z" stroke="#DCD6F7"/>
<path fill-rule="evenodd" clip-rule="evenodd" d="M176.883 137.164C176.883 131.641 172.406 127.164 166.883 127.164H49.4492C43.9264 127.164 39.4492 131.641 39.4492 137.164V257.994C39.4492 263.517 43.9264 267.994 49.4492 267.994H166.883C172.406 267.994 176.883 263.517 176.883 257.994V216.936C176.883 213.582 178.736 210.143 182.054 210.632C183.074 210.782 184.076 211.094 184.974 211.541C186.991 212.544 189.256 213.107 191.648 213.107C200.098 213.107 206.949 206.088 206.949 197.429C206.949 188.77 200.098 181.75 191.648 181.75C189.282 181.75 187.04 182.301 185.04 183.284C183.56 184.012 181.829 184.348 180.243 184.136C177.793 183.807 176.883 181.081 176.883 178.608V137.164Z" fill="#FDFBFC"/>
<path fill-rule="evenodd" clip-rule="evenodd" d="M206.666 258.166C206.666 263.689 211.143 268.166 216.666 268.166L334.1 268.166C339.623 268.166 344.1 263.689 344.1 258.166L344.1 137.336C344.1 131.813 339.623 127.336 334.1 127.336L216.666 127.336C211.143 127.336 206.666 131.813 206.666 137.336L206.666 179.879C206.666 180.802 206.982 181.697 207.562 182.415C209.496 184.809 213.132 184.813 215.893 183.455C217.894 182.472 220.135 181.921 222.502 181.921C230.952 181.921 237.802 188.941 237.802 197.6C237.802 206.258 230.952 213.278 222.502 213.278C220.109 213.278 217.845 212.715 215.828 211.712C213.994 210.799 211.723 210.449 209.767 210.891C207.469 211.41 206.666 213.978 206.666 216.334L206.666 258.166Z" fill="#FDFBFC"/>
<path fill-rule="evenodd" clip-rule="evenodd" d="M176.883 137.164C176.883 131.641 172.406 127.164 166.883 127.164H49.4492C43.9264 127.164 39.4492 131.641 39.4492 137.164V257.994C39.4492 263.517 43.9264 267.994 49.4492 267.994H166.883C172.406 267.994 176.883 263.517 176.883 257.994V216.936C176.883 213.582 178.736 210.143 182.054 210.632C183.074 210.782 184.076 211.094 184.974 211.541C186.991 212.544 189.256 213.107 191.648 213.107C200.098 213.107 206.949 206.088 206.949 197.429C206.949 188.77 200.098 181.75 191.648 181.75C189.282 181.75 187.04 182.301 185.04 183.284C183.56 184.012 181.829 184.348 180.243 184.136C177.793 183.807 176.883 181.081 176.883 178.608V137.164Z" fill="url(#paint0_linear_7124_63430)" fill-opacity="0.3"/>
<path fill-rule="evenodd" clip-rule="evenodd" d="M206.666 258.166C206.666 263.689 211.143 268.166 216.666 268.166L334.1 268.166C339.623 268.166 344.1 263.689 344.1 258.166L344.1 137.336C344.1 131.813 339.623 127.336 334.1 127.336L216.666 127.336C211.143 127.336 206.666 131.813 206.666 137.336L206.666 179.879C206.666 180.802 206.982 181.697 207.562 182.415C209.496 184.809 213.132 184.813 215.893 183.455C217.894 182.472 220.135 181.921 222.502 181.921C230.952 181.921 237.802 188.941 237.802 197.6C237.802 206.258 230.952 213.278 222.502 213.278C220.109 213.278 217.845 212.715 215.828 211.712C213.994 210.799 211.723 210.449 209.767 210.891C207.469 211.41 206.666 213.978 206.666 216.334L206.666 258.166Z" fill="url(#paint1_linear_7124_63430)" fill-opacity="0.3"/>
<path d="M286.116 171.533C287.242 156.719 270.893 154.679 264.639 161.37C256.069 169.736 255.925 187.252 262.039 189.929C268.589 192.798 284.907 187.452 286.116 171.533Z" stroke="#2E317D" stroke-linecap="round"/>
<path d="M283.106 176.476C276.324 173.648 271.106 166.526 271.871 160.547C271.945 159.966 271.577 159.394 270.991 159.401C268.981 159.428 266.457 160.263 264.631 161.31C263.883 161.738 262.873 161.257 263.147 160.439C263.928 158.107 266.02 155.916 267.843 154.665C268.391 154.288 268.514 153.49 268.264 152.873C266.977 149.686 271.648 146.512 270.779 148.269C270.161 149.519 271.013 150.543 271.825 151.116C272.163 151.355 272.613 151.271 272.927 151.001C276.519 147.925 279.771 148.976 280.618 150.801C280.861 151.327 281.322 151.826 281.901 151.856C291.097 152.323 297.458 161.605 296.249 169.927C294.994 178.569 289.096 181.65 287.518 182.248C285.94 182.847 286.259 185.761 284.921 185.924C283.584 186.087 280.615 184.518 281.715 183.104C282.888 181.595 285.285 177.384 283.106 176.476Z" fill="#2E317D" stroke="#2E317D" stroke-linecap="round"/>
<path d="M266.819 190.641C266.115 194.608 266.085 197.751 261.73 200.301C257.376 202.851 244.002 203.488 234.36 213.687C226.646 221.846 222.644 224.311 221.607 224.524" stroke="#2E317D" stroke-linecap="round"/>
<path d="M279.149 185.641C276.972 195.84 279.46 199.027 281.637 201.576C283.814 204.126 297.5 208.907 309.008 227.393C320.394 245.682 325.691 258.667 327.308 278.695C327.34 279.087 327.139 279.465 326.791 279.648C317.492 284.558 304.447 287.369 294.39 290.18C284.126 293.048 276.039 293.048 273.862 294.642C271.684 296.236 265.153 298.785 263.598 298.785C262.043 298.785 254.889 295.598 257.688 294.642C260.487 293.686 264.219 291.455 265.775 291.455C267.33 291.455 269.265 292.087 271.995 291.455C281.637 289.224 299.055 272.013 313.052 270.738" stroke="#2E317D" stroke-linecap="round"/>
<path d="M299.057 250.979C306.182 261.094 309.507 264.152 312.12 270.739" stroke="#2E317D" stroke-linecap="round"/>
<path d="M205.577 246.586C217.077 244.331 237.384 235.677 239.815 233.381" stroke="#2E317D" stroke-linecap="round"/>
<path d="M206.988 163.65C212.206 178.262 210.177 172 209.597 180.051C207.713 206.221 220.612 216.73 220.033 233.131" stroke="#2E317D" stroke-linecap="round"/>
<path d="M260.797 200.939C253.954 228.987 277.593 219.425 282.88 202.852" stroke="#2E317D" stroke-linecap="round"/>
<path d="M233.738 215.281C239.461 219.361 240.063 229.092 239.648 233.448" stroke="#2E317D" stroke-linecap="round"/>
<path d="M299.057 250.978C300.877 236.049 307.25 226.364 308.388 226.768" stroke="#2E317D" stroke-linecap="round"/>
<path d="M239.958 233.768C241.136 247.026 239.222 263.944 239.025 266.595" stroke="#2E317D" stroke-linecap="round"/>
<path d="M299.152 251.615C299.18 261.829 299.185 263.871 300.3 267.551" stroke="#2E317D" stroke-linecap="round"/>
<path d="M110.27 175.525C111.399 160.804 126.76 161.436 131.543 169.011C138.215 178.603 135.786 195.82 129.761 197.462C123.307 199.223 109.055 191.345 110.27 175.525Z" stroke="#2E317D" stroke-linecap="round"/>
<path d="M123.284 162.705C123.422 166.225 121.741 173.547 116.436 176.636C115.926 176.933 115.747 177.58 115.863 178.159C116.218 179.929 114.192 180.477 114.376 183.137C114.592 186.248 118.148 186.538 116.32 191.136C114.376 196.024 109.626 200.467 103.364 196.024C97.1024 191.58 102.716 189.581 99.9094 186.026C97.1024 182.471 96.2387 184.692 95.8069 180.915C95.375 177.138 98.182 176.694 98.182 174.25C98.182 171.806 98.6139 168.029 99.9094 164.918C101.205 161.808 104.012 161.141 105.739 157.808C107.467 154.476 115.456 153.143 120.422 154.476C125.997 155.972 135.969 148.699 137.048 157.808C138.183 167.384 141.945 165.46 144.606 168.918C148.708 174.25 144.822 176.472 143.742 180.915C142.509 185.989 146.549 185.137 142.662 188.025C139.945 190.045 135.321 187.136 135.105 184.915C134.889 182.693 131.65 182.915 131.65 179.804C131.65 176.694 132.946 174.472 132.514 170.917C132.102 167.526 124.026 167.168 123.284 162.705Z" fill="#2E317D" stroke="#2E317D" stroke-linecap="round"/>
<path d="M122.51 163.951C124.605 167.337 123.906 170.652 123.295 171.886" stroke="#2E317D" stroke-linecap="round"/>
<path d="M118.64 194.246C118.64 200.017 115.128 204.821 113.376 205.42C111.623 206.018 95.1496 205.921 82.7093 214.099C67.2301 224.274 53.8775 238.969 39.7988 253.035" stroke="#2E317D" stroke-linecap="round"/>
<path d="M129.2 197.492C128.144 203.263 130.609 205.12 133.529 206.916C136.45 208.712 151.053 206.916 166.532 245.822C170.223 255.1 172.373 257.494 172.373 257.494M139.955 245.822C143.752 253.603 165.694 274.328 167.408 273.954C181.135 270.962 211.218 242.829 217.351 241.333C223.484 239.837 229.909 234.749 232.246 234.749C234.582 234.749 235.751 233.552 236.043 233.253C236.335 232.953 233.414 230.559 232.246 230.559C231.078 230.559 222.316 233.253 221.44 233.253" stroke="#2E317D" stroke-linecap="round"/>
<path d="M169.16 260.188C173.833 255.399 193.985 246.421 204.207 242.53C214.43 238.64 216.766 234.151 218.226 232.953C219.687 231.756 221.147 231.457 222.023 231.457" stroke="#2E317D" stroke-linecap="round"/>
<path d="M113.082 206.02C114.834 223.677 135.571 226.071 135.571 208.114" stroke="#2E317D" stroke-linecap="round"/>
<path d="M44.373 267.823C54.9115 260.492 77.3584 245.124 82.8383 242.292L89.4249 238.248" stroke="#2E317D" stroke-linecap="round"/>
<path d="M85.9236 240.436C82.4188 248.317 75.2341 264.976 74.5332 268.568" stroke="#2E317D" stroke-linecap="round"/>
<path d="M140.831 248.516C138.962 253.065 138.884 263.779 139.079 268.567" stroke="#2E317D" stroke-linecap="round"/>
<path d="M54.0879 238.939C55.4898 243.967 62.2656 251.01 65.4782 253.903" stroke="#2E317D" stroke-linecap="round"/>
<path d="M150.469 258.991C153.097 255.998 161.567 248.517 166.532 247.918" stroke="#2E317D" stroke-linecap="round"/>
<rect x="31" y="135.098" width="13.3748" height="13.7053" rx="1" fill="#6568BC"/>
<rect x="228.805" y="258.445" width="25.3417" height="15.148" rx="1" fill="#6568BC"/>
<rect x="41.5586" y="255.561" width="16.1905" height="9.37731" rx="1" fill="#6568BC"/>
<rect x="249.924" y="269.266" width="11.9669" height="10.0986" rx="1" fill="#FEA28D"/>
<rect x="292.162" y="125" width="19.7102" height="10.0986" rx="1" fill="#FEA28D"/>
<rect x="33.8164" y="248.348" width="11.9669" height="10.0986" rx="1" fill="#FEA28D"/>
<rect x="33.8164" y="248.348" width="11.9669" height="28.8533" rx="1" fill="#FEA28D"/>
<rect x="40.8555" y="143.754" width="26.0456" height="21.6399" rx="1" fill="#FEA28D"/>
<defs>
<linearGradient id="paint0_linear_7124_63430" x1="123.199" y1="127.164" x2="123.199" y2="267.994" gradientUnits="userSpaceOnUse">
<stop stop-color="#FEA28D"/>
<stop offset="1" stop-color="#4D50A4"/>
</linearGradient>
<linearGradient id="paint1_linear_7124_63430" x1="275.383" y1="127.336" x2="275.383" y2="268.166" gradientUnits="userSpaceOnUse">
<stop stop-color="#4D50A4"/>
<stop offset="1" stop-color="#FEA28D"/>
</linearGradient>
</defs>
</svg>
