<svg width="375" height="528" viewBox="0 0 375 528" fill="none" xmlns="http://www.w3.org/2000/svg">
<path d="M346.997 314.082C350.661 314.752 352.794 315.404 354.179 316.358C355.527 317.286 356.225 318.543 356.88 320.617C357.176 321.552 357.459 322.64 357.79 323.912C358.932 328.303 360.643 334.884 365.42 344.931C368.529 351.469 372.397 355.416 376.603 357.912C380.797 360.401 385.287 361.421 389.583 362.167C390.444 362.316 391.295 362.454 392.134 362.59C395.512 363.139 398.689 363.655 401.522 364.74C405.013 366.077 407.95 368.271 409.954 372.486C410.341 373.3 410.726 374.104 411.107 374.9C417.788 388.859 423.256 400.286 417.749 415.666C416.786 418.355 415.228 420.775 413.522 423.177C413.108 423.758 412.686 424.34 412.261 424.924C410.943 426.738 409.607 428.576 408.484 430.513C406.159 434.523 404.313 439.361 402.519 444.49C402.057 445.814 401.597 447.157 401.134 448.512C399.798 452.419 398.43 456.42 396.85 460.328C392.592 470.855 386.847 480.554 376.282 485.565C372.715 487.257 366.55 488.465 358.687 489.061C350.842 489.655 341.364 489.636 331.211 488.906C310.899 487.445 287.941 483.144 269.995 475.262C268.423 474.571 266.831 473.835 265.468 472.907C264.109 471.983 263.006 470.887 262.384 469.492C261.057 466.511 261.97 463.102 264.246 459.373C266.513 455.656 270.059 451.744 273.764 447.819C274.317 447.233 274.874 446.647 275.43 446.061C278.585 442.738 281.725 439.43 284.114 436.286C286.905 432.61 288.776 429.027 288.308 425.805C288.057 424.057 287.278 422.064 286.153 419.903C285.025 417.738 283.535 415.377 281.839 412.889C279.966 410.142 277.816 407.206 275.61 404.194C273.841 401.777 272.036 399.313 270.311 396.859C266.412 391.313 262.876 385.767 260.862 380.715C258.843 375.653 258.398 371.201 260.497 367.752C264.908 360.505 272.756 349.731 281.398 339.588C290.047 329.434 299.449 319.964 306.964 315.281C314.459 310.628 320.773 309.664 327.03 310.181C330.173 310.441 333.309 311.075 336.596 311.818C337.375 311.994 338.164 312.176 338.962 312.361C341.521 312.953 344.185 313.569 346.997 314.082Z" stroke="#FFD5BE"/>
<path d="M345.223 297.57C348.888 298.24 351.021 298.892 352.406 299.846C353.754 300.774 354.451 302.031 355.107 304.105C355.403 305.04 355.686 306.129 356.017 307.401C357.158 311.792 358.87 318.372 363.647 328.419C366.756 334.957 370.624 338.904 374.829 341.4C379.024 343.889 383.514 344.909 387.81 345.655C388.671 345.804 389.522 345.942 390.36 346.079C393.738 346.627 396.915 347.143 399.749 348.229C403.239 349.566 406.176 351.76 408.181 355.974C408.568 356.788 408.953 357.592 409.334 358.388C416.014 372.347 421.483 383.774 415.976 399.154C415.013 401.843 413.454 404.263 411.748 406.665C411.335 407.247 410.912 407.828 410.488 408.413C409.17 410.226 407.834 412.064 406.711 414.001C404.385 418.012 402.539 422.849 400.746 427.978C400.283 429.302 399.824 430.645 399.361 432C398.025 435.907 396.657 439.908 395.076 443.816C390.819 454.343 385.074 464.043 374.509 469.053C370.941 470.745 364.776 471.954 356.913 472.549C349.068 473.144 339.591 473.124 329.438 472.394C309.125 470.934 286.167 466.632 268.222 458.75C266.649 458.059 265.057 457.323 263.694 456.395C262.335 455.471 261.233 454.376 260.611 452.98C259.283 449.999 260.197 446.59 262.472 442.861C264.74 439.144 268.285 435.233 271.991 431.307C272.544 430.721 273.1 430.135 273.656 429.549C276.811 426.227 279.952 422.919 282.34 419.774C285.132 416.098 287.002 412.515 286.534 409.293C286.284 407.546 285.504 405.552 284.379 403.392C283.252 401.226 281.762 398.865 280.066 396.378C278.193 393.631 276.042 390.694 273.837 387.682C272.068 385.266 270.263 382.801 268.538 380.347C264.639 374.802 261.102 369.255 259.088 364.204C257.07 359.142 256.624 354.689 258.724 351.24C263.135 343.993 270.983 333.219 279.624 323.076C288.274 312.923 297.676 303.452 305.191 298.769C312.686 294.116 319 293.153 325.256 293.67C328.399 293.929 331.536 294.564 334.822 295.306C335.602 295.482 336.39 295.665 337.189 295.849C339.748 296.441 342.412 297.057 345.223 297.57Z" stroke="#FFD5BE"/>
<path d="M350.852 308.166C354.517 308.836 356.65 309.488 358.035 310.442C359.383 311.37 360.08 312.627 360.736 314.701C361.032 315.636 361.315 316.724 361.646 317.996C362.787 322.387 364.499 328.968 369.276 339.015C372.385 345.553 376.253 349.5 380.458 351.996C384.652 354.485 389.143 355.505 393.439 356.251C394.3 356.4 395.151 356.538 395.989 356.674C399.367 357.223 402.544 357.739 405.378 358.824C408.868 360.161 411.805 362.355 413.81 366.57C414.197 367.384 414.582 368.188 414.963 368.984C421.643 382.943 427.112 394.37 421.605 409.75C420.642 412.439 419.083 414.859 417.377 417.261C416.964 417.842 416.541 418.424 416.117 419.008C414.799 420.822 413.463 422.66 412.34 424.597C410.014 428.607 408.168 433.445 406.375 438.574C405.912 439.898 405.453 441.241 404.989 442.596C403.654 446.503 402.286 450.504 400.705 454.412C396.448 464.939 390.703 474.638 380.138 479.649C376.57 481.341 370.405 482.549 362.542 483.145C354.697 483.739 345.219 483.72 335.067 482.99C314.754 481.529 291.796 477.228 273.85 469.346C272.278 468.655 270.686 467.919 269.323 466.991C267.964 466.067 266.862 464.971 266.24 463.576C264.912 460.595 265.826 457.186 268.101 453.457C270.369 449.74 273.914 445.828 277.62 441.903C278.173 441.317 278.729 440.731 279.285 440.145C282.44 436.822 285.581 433.514 287.969 430.37C290.761 426.694 292.631 423.111 292.163 419.889C291.913 418.141 291.133 416.148 290.008 413.987C288.881 411.822 287.391 409.461 285.695 406.973C283.822 404.226 281.671 401.29 279.466 398.278C277.696 395.861 275.892 393.397 274.167 390.943C270.268 385.397 266.731 379.851 264.717 374.799C262.699 369.737 262.253 365.285 264.353 361.836C268.764 354.589 276.612 343.815 285.253 333.672C293.903 323.518 303.305 314.048 310.82 309.365C318.315 304.712 324.629 303.748 330.885 304.265C334.028 304.525 337.165 305.159 340.451 305.902C341.231 306.078 342.019 306.26 342.818 306.445C345.377 307.037 348.04 307.653 350.852 308.166Z" stroke="#FFD5BE"/>
<path d="M349.079 291.654C352.743 292.324 354.876 292.976 356.261 293.93C357.609 294.858 358.307 296.115 358.962 298.189C359.258 299.124 359.541 300.213 359.872 301.485C361.014 305.876 362.725 312.456 367.502 322.503C370.611 329.041 374.479 332.988 378.685 335.484C382.879 337.973 387.369 338.993 391.665 339.739C392.527 339.888 393.377 340.026 394.216 340.163C397.594 340.711 400.771 341.227 403.605 342.313C407.095 343.65 410.032 345.844 412.036 350.058C412.423 350.872 412.808 351.676 413.189 352.472C419.87 366.431 425.338 377.858 419.831 393.238C418.868 395.927 417.31 398.347 415.604 400.749C415.19 401.331 414.768 401.912 414.343 402.497C413.025 404.31 411.69 406.148 410.566 408.085C408.241 412.096 406.395 416.933 404.602 422.062C404.139 423.386 403.679 424.729 403.216 426.084C401.88 429.991 400.512 433.992 398.932 437.9C394.674 448.427 388.929 458.127 378.364 463.137C374.797 464.829 368.632 466.038 360.769 466.633C352.924 467.228 343.446 467.208 333.293 466.478C312.981 465.017 290.023 460.716 272.077 452.834C270.505 452.143 268.913 451.407 267.55 450.479C266.191 449.555 265.088 448.459 264.467 447.064C263.139 444.083 264.052 440.674 266.328 436.945C268.595 433.228 272.141 429.317 275.846 425.391C276.399 424.805 276.956 424.219 277.512 423.633C280.667 420.31 283.807 417.003 286.196 413.858C288.987 410.182 290.858 406.599 290.39 403.377C290.139 401.63 289.36 399.636 288.235 397.476C287.107 395.31 285.617 392.949 283.921 390.462C282.048 387.715 279.898 384.778 277.692 381.766C275.923 379.35 274.118 376.885 272.393 374.431C268.494 368.886 264.958 363.339 262.944 358.288C260.925 353.226 260.48 348.773 262.579 345.324C266.99 338.077 274.838 327.303 283.48 317.16C292.129 307.007 301.531 297.536 309.046 292.853C316.541 288.2 322.855 287.237 329.112 287.754C332.255 288.013 335.391 288.648 338.678 289.39C339.457 289.566 340.246 289.749 341.044 289.933C343.603 290.525 346.267 291.141 349.079 291.654Z" stroke="#FFD5BE"/>
<path d="M339.079 284.654C342.743 285.324 344.876 285.976 346.261 286.93C347.609 287.858 348.307 289.115 348.962 291.189C349.258 292.124 349.541 293.213 349.872 294.485C351.014 298.876 352.725 305.456 357.502 315.503C360.611 322.041 364.479 325.988 368.685 328.484C372.879 330.973 377.369 331.993 381.665 332.739C382.527 332.888 383.377 333.026 384.216 333.163C387.594 333.711 390.771 334.227 393.605 335.313C397.095 336.65 400.032 338.844 402.036 343.058C402.423 343.872 402.808 344.676 403.189 345.472C409.87 359.431 415.338 370.858 409.831 386.238C408.868 388.927 407.31 391.347 405.604 393.749C405.19 394.331 404.768 394.912 404.343 395.497C403.025 397.31 401.69 399.148 400.566 401.085C398.241 405.096 396.395 409.933 394.602 415.062C394.139 416.386 393.679 417.729 393.216 419.084C391.88 422.991 390.512 426.992 388.932 430.9C384.674 441.427 378.929 451.127 368.364 456.137C364.797 457.829 358.632 459.038 350.769 459.633C342.924 460.228 333.446 460.208 323.293 459.478C302.981 458.017 280.023 453.716 262.077 445.834C260.505 445.143 258.913 444.407 257.55 443.479C256.191 442.555 255.088 441.459 254.467 440.064C253.139 437.083 254.052 433.674 256.328 429.945C258.595 426.228 262.141 422.317 265.846 418.391C266.399 417.805 266.956 417.219 267.512 416.633C270.667 413.31 273.807 410.003 276.196 406.858C278.987 403.182 280.858 399.599 280.39 396.377C280.139 394.63 279.36 392.636 278.235 390.476C277.107 388.31 275.617 385.949 273.921 383.462C272.048 380.715 269.898 377.778 267.692 374.766C265.923 372.35 264.118 369.885 262.393 367.431C258.494 361.886 254.958 356.339 252.944 351.288C250.925 346.226 250.48 341.773 252.579 338.324C256.99 331.077 264.838 320.303 273.48 310.16C282.129 300.007 291.531 290.536 299.046 285.853C306.541 281.2 312.855 280.237 319.112 280.754C322.255 281.013 325.391 281.648 328.678 282.39C329.457 282.566 330.246 282.749 331.044 282.933C333.603 283.525 336.267 284.141 339.079 284.654Z" stroke="#FFD5BE"/>
<path d="M-47.9159 255.057C-47.4988 252.566 -46.511 250.524 -45.1694 248.591C-44.0533 246.984 -42.7204 245.49 -41.2922 243.888C-40.9875 243.547 -40.6785 243.201 -40.3663 242.847C-36.8421 238.857 -33.0311 234.098 -31.3761 225.917C-29.7844 218.049 -24.7957 201.667 -18.8208 187.372C-15.8341 180.226 -12.6167 173.64 -9.47252 168.91C-6.31024 164.153 -3.31932 161.417 -0.74682 161.64C8.09595 162.405 16.1109 166.573 24.1895 171.741C28.0908 174.237 31.511 177.91 33.2485 183.561C34.9915 189.23 36.4828 196.325 38.0317 203.693L38.18 204.399C39.7793 212.004 41.4486 219.853 43.5202 226.606C43.8667 227.735 44.2879 229.001 44.7515 230.393C46.2884 235.011 48.2909 241.028 49.5823 248.131C51.2599 257.359 51.7169 268.336 48.3693 280.268C47.3105 284.042 45.6684 287.559 43.689 290.639C39.8387 296.628 34.6213 303.283 29.6262 308.693C27.1295 311.397 24.6948 313.782 22.5203 315.615C20.3388 317.454 18.4467 318.713 17.0258 319.2C13.6471 320.347 6.85931 322.324 0.040848 323.353C-3.36854 323.867 -6.77723 324.143 -9.76739 323.962C-12.7655 323.781 -15.3076 323.142 -17.01 321.862C-20.5064 319.233 -26.1709 313.23 -31.5072 306.599C-36.8475 299.963 -41.8125 292.756 -43.9377 287.734C-48.1941 277.634 -49.6719 265.553 -47.9159 255.057Z" stroke="#DCD6F7"/>
<path d="M-45.6835 245.766C-45.2664 243.275 -44.2786 241.233 -42.937 239.3C-41.8209 237.693 -40.488 236.199 -39.0598 234.597C-38.7551 234.256 -38.446 233.909 -38.1339 233.556C-34.6097 229.566 -30.7987 224.807 -29.1437 216.626C-27.5519 208.758 -22.5632 192.376 -16.5884 178.081C-13.6017 170.935 -10.3843 164.349 -7.2401 159.619C-4.07781 154.862 -1.08689 152.126 1.4856 152.349C10.3284 153.114 18.3433 157.282 26.4219 162.45C30.3232 164.946 33.7434 168.619 35.4809 174.27C37.2239 179.939 38.7152 187.034 40.2641 194.402L40.4125 195.108C42.0117 202.713 43.681 210.562 45.7526 217.315C46.0992 218.444 46.5203 219.71 46.9839 221.102C48.5208 225.72 50.5233 231.737 51.8147 238.84C53.4923 248.068 53.9493 259.045 50.6018 270.977C49.5429 274.751 47.9008 278.268 45.9214 281.348C42.0711 287.337 36.8537 293.992 31.8586 299.402C29.3619 302.105 26.9273 304.491 24.7527 306.324C22.5712 308.163 20.6792 309.422 19.2582 309.909C15.8796 311.056 9.09173 313.033 2.27327 314.062C-1.13612 314.576 -4.54481 314.852 -7.53497 314.671C-10.533 314.49 -13.0752 313.851 -14.7776 312.571C-18.274 309.942 -23.9385 303.938 -29.2747 297.308C-34.6151 290.672 -39.5801 283.465 -41.7053 278.443C-45.9616 268.343 -47.4395 256.262 -45.6835 245.766Z" stroke="#DCD6F7"/>
<path d="M-45.6562 234.195C-45.239 231.705 -44.2512 229.662 -42.9097 227.73C-41.7935 226.122 -40.4606 224.628 -39.0324 223.027C-38.7277 222.686 -38.4187 222.339 -38.1065 221.986C-34.5823 217.996 -30.7713 213.236 -29.1164 205.056C-27.5246 197.187 -22.5359 180.806 -16.5611 166.51C-13.5743 159.364 -10.357 152.778 -7.21275 148.048C-4.05047 143.291 -1.05955 140.556 1.51295 140.778C10.3557 141.543 18.3706 145.712 26.4493 150.88C30.3506 153.376 33.7708 157.048 35.5082 162.7C37.2512 168.369 38.7426 175.464 40.2915 182.832L40.4398 183.538C42.0391 191.143 43.7083 198.991 45.78 205.744C46.1265 206.874 46.5477 208.139 47.0112 209.532C48.5481 214.15 50.5507 220.166 51.8421 227.27C53.5197 236.498 53.9767 247.475 50.6291 259.406C49.5703 263.18 47.9282 266.698 45.9488 269.777C42.0985 275.767 36.8811 282.422 31.886 287.831C29.3893 290.535 26.9546 292.921 24.78 294.754C22.5986 296.593 20.7065 297.852 19.2856 298.339C15.9069 299.486 9.11907 301.463 2.30061 302.491C-1.10877 303.006 -4.51747 303.281 -7.50762 303.101C-10.5057 302.919 -13.0478 302.28 -14.7502 301C-18.2466 298.371 -23.9111 292.368 -29.2474 285.737C-34.5878 279.102 -39.5527 271.894 -41.678 266.873C-45.9343 256.773 -47.4122 244.692 -45.6562 234.195Z" stroke="#DCD6F7"/>
<path d="M101.077 142.812C101.587 138.985 100.714 134.774 99.2284 130.311C98.1033 126.932 96.6107 123.367 95.0673 119.679C94.5725 118.497 94.0725 117.303 93.5777 116.098C89.4834 106.128 85.7204 95.3862 87.7565 84.5161C88.7602 79.1577 92.3759 74.1138 97.6846 69.5977C102.988 65.0859 109.939 61.1378 117.524 57.9658C132.706 51.6162 150.312 48.4223 162.124 49.9692C172.423 51.318 179.443 56.8189 186.041 63.5972C187.903 65.511 189.737 67.5329 191.602 69.5903C196.318 74.7913 201.24 80.2185 207.358 84.6963C207.84 85.0495 208.324 85.4047 208.808 85.7606C213.172 88.967 217.63 92.2426 222.442 94.7828C226.832 97.1003 232.101 98.8977 237.695 100.625C239.251 101.106 240.832 101.581 242.427 102.06C246.583 103.309 250.838 104.588 255.014 106.071C266.572 110.177 277.363 115.8 283.378 126.459C284.309 128.11 285.425 129.968 286.655 132.016C290.913 139.105 296.534 148.465 300.581 159.336C305.79 173.33 308.355 189.752 301.987 206.888C300.841 209.971 299.13 212.82 296.993 215.33C290.057 223.479 279.631 232.726 269.308 240.192C264.148 243.924 259.023 247.205 254.383 249.678C249.733 252.156 245.605 253.804 242.43 254.303C235.386 255.396 221.184 257.126 206.75 257.501C199.532 257.689 192.267 257.538 185.815 256.802C179.352 256.065 173.751 254.746 169.832 252.626C161.866 248.318 148.685 238.87 136.112 228.593C123.534 218.311 111.631 207.256 106.188 199.745C100.807 192.295 99.015 181.823 98.836 171.286C98.6611 160.989 100.027 150.716 101.013 143.296L101.077 142.812Z" stroke="#DCD6F7"/>
<path d="M102.35 134.747C103.215 130.984 102.739 126.71 101.676 122.128C100.872 118.659 99.7186 114.969 98.5262 111.154C98.144 109.931 97.7577 108.695 97.3776 107.449C94.2321 97.1404 91.4885 86.0943 94.5307 75.4618C96.0304 70.2205 100.101 65.5363 105.808 61.5356C111.51 57.5387 118.799 54.2569 126.647 51.807C142.356 46.9028 160.183 45.3668 171.799 48.0098C181.927 50.3144 188.403 56.4468 194.339 63.8115C196.015 65.8909 197.651 68.0752 199.317 70.2977C203.526 75.9164 207.919 81.7794 213.592 86.8089C214.04 87.2056 214.488 87.6043 214.937 88.004C218.983 91.6038 223.116 95.2814 227.669 98.2598C231.824 100.977 236.902 103.259 242.31 105.501C243.815 106.125 245.344 106.745 246.887 107.371C250.908 109.003 255.025 110.673 259.045 112.54C270.169 117.708 280.387 124.313 285.381 135.488C286.154 137.218 287.092 139.172 288.125 141.326C291.702 148.781 296.425 158.626 299.439 169.827C303.319 184.246 304.339 200.837 296.399 217.303C294.97 220.266 293.001 222.942 290.639 225.242C282.972 232.707 271.728 240.94 260.753 247.41C255.267 250.644 249.858 253.431 245.007 255.461C240.146 257.494 235.882 258.749 232.675 258.95C225.56 259.38 211.258 259.776 196.852 258.802C189.648 258.315 182.429 257.486 176.073 256.151C169.708 254.814 164.255 252.978 160.55 250.501C153.022 245.468 140.78 234.83 129.222 223.424C117.658 212.013 106.84 199.894 102.122 191.909C97.4606 183.989 96.654 173.395 97.4597 162.888C98.2471 152.619 100.566 142.518 102.241 135.223L102.35 134.747Z" stroke="#DCD6F7"/>
<path d="M105.567 123.21C106.938 119.601 107.051 115.302 106.625 110.618C106.302 107.071 105.665 103.259 105.005 99.3162C104.794 98.0523 104.58 96.7751 104.374 95.489C102.668 84.847 101.461 73.5294 105.929 63.4128C108.131 58.4259 112.804 54.3424 119.005 51.1599C125.2 47.9803 132.869 45.7263 140.978 44.3726C157.21 41.6628 175.08 42.5794 186.225 46.7861C195.943 50.4542 201.52 57.4147 206.392 65.5219C207.768 67.8109 209.09 70.1986 210.436 72.628C213.838 78.7695 217.388 85.1783 222.32 90.9364C222.709 91.3906 223.098 91.8468 223.488 92.3042C227.004 96.4234 230.595 100.632 234.698 104.205C238.442 107.465 243.161 110.419 248.211 113.38C249.616 114.204 251.046 115.028 252.49 115.859C256.25 118.025 260.099 120.243 263.826 122.642C274.139 129.282 283.358 137.223 286.776 148.976C287.306 150.795 287.967 152.86 288.696 155.134C291.22 163.009 294.552 173.407 296.006 184.915C297.877 199.729 296.619 216.303 286.502 231.529C284.681 234.268 282.364 236.65 279.71 238.606C271.094 244.952 258.829 251.57 247.073 256.478C241.197 258.931 235.458 260.953 230.374 262.3C225.281 263.649 220.885 264.309 217.681 264.07C210.574 263.523 196.352 261.959 182.214 259.024C175.145 257.556 168.107 255.748 161.994 253.556C155.871 251.361 150.72 248.796 147.389 245.836C140.62 239.821 129.948 227.609 120.059 214.73C110.164 201.844 101.105 188.36 97.5234 179.804C93.9887 171.321 94.6384 160.717 96.8735 150.418C99.058 140.353 102.737 130.664 105.393 123.667L105.567 123.21Z" stroke="#DCD6F7"/>
<path d="M218.549 233.528C214.908 234.815 211.555 237.507 208.257 240.86C205.759 243.398 203.262 246.349 200.68 249.401C199.853 250.379 199.016 251.368 198.168 252.356C191.151 260.537 183.296 268.774 172.689 271.904C167.46 273.447 161.324 272.521 154.887 269.847C148.457 267.175 141.78 262.78 135.505 257.468C122.946 246.835 112.094 232.607 108.1 221.385C104.617 211.599 106.323 202.844 109.36 193.886C110.217 191.357 111.184 188.804 112.168 186.207C114.655 179.642 117.25 172.791 118.456 165.306C118.551 164.715 118.647 164.123 118.744 163.53C119.615 158.185 120.504 152.725 120.578 147.284C120.646 142.321 119.85 136.81 118.844 131.043C118.565 129.438 118.269 127.815 117.97 126.176C117.193 121.907 116.396 117.536 115.818 113.142C114.218 100.981 114.318 88.8138 121.076 78.6086C122.122 77.0286 123.27 75.1896 124.534 73.1629C128.911 66.1474 134.691 56.8837 142.532 48.3354C152.626 37.3322 166.085 27.5787 184.242 25.4569C187.509 25.0751 190.824 25.3035 194.032 26.0649C204.443 28.5361 217.421 33.6167 228.765 39.4143C234.435 42.3122 239.687 45.3845 244.001 48.3926C248.323 51.4068 251.668 54.3337 253.556 56.9337C257.733 62.71 265.732 74.5716 272.631 87.2563C276.081 93.5989 279.251 100.138 281.53 106.219C283.812 112.31 285.185 117.898 285.08 122.353C284.866 131.406 282.446 147.442 279.011 163.313C275.575 179.192 271.142 194.82 266.929 203.083C262.741 211.264 254.23 217.622 244.927 222.574C235.836 227.413 226.065 230.869 219.009 233.365L218.549 233.528Z" stroke="#FFD5BE"/>
<path d="M211.495 236.091C207.751 237.032 204.161 239.399 200.563 242.43C197.84 244.724 195.078 247.429 192.223 250.226C191.307 251.123 190.382 252.029 189.445 252.934C181.695 260.424 173.105 267.891 162.252 270.017C156.902 271.065 150.879 269.57 144.721 266.307C138.568 263.047 132.33 258.048 126.579 252.173C115.067 240.413 105.591 225.234 102.663 213.688C100.109 203.619 102.625 195.063 106.485 186.427C107.574 183.989 108.775 181.538 109.997 179.044C113.087 172.739 116.31 166.161 118.209 158.821C118.359 158.242 118.511 157.661 118.662 157.08C120.028 151.84 121.424 146.486 122.006 141.076C122.536 136.141 122.258 130.58 121.796 124.744C121.667 123.12 121.524 121.476 121.38 119.817C121.004 115.494 120.62 111.068 120.454 106.639C119.997 94.3815 121.233 82.2767 128.914 72.7471C130.103 71.2717 131.417 69.5478 132.865 67.6481C137.878 61.072 144.497 52.3884 153.103 44.6097C164.18 34.597 178.491 26.1429 196.767 25.7258C200.055 25.6507 203.335 26.1876 206.457 27.2452C216.592 30.6778 229.039 36.9479 239.792 43.7795C245.167 47.1942 250.109 50.7434 254.123 54.1412C258.144 57.5457 261.202 60.7722 262.839 63.5372C266.458 69.6783 273.315 82.235 279 95.5085C281.842 102.146 284.387 108.952 286.088 115.219C287.792 121.497 288.637 127.188 288.117 131.614C287.058 140.608 283.151 156.348 278.25 171.829C273.346 187.317 267.473 202.463 262.507 210.297C257.573 218.051 248.506 223.587 238.781 227.648C229.278 231.617 219.227 234.146 211.969 235.972L211.495 236.091Z" stroke="#FFD5BE"/>
<path d="M199.792 238.516C195.953 238.937 192.074 240.791 188.096 243.301C185.084 245.201 181.978 247.503 178.767 249.883C177.738 250.646 176.697 251.417 175.646 252.186C166.944 258.545 157.413 264.767 146.372 265.389C140.929 265.696 135.167 263.391 129.512 259.316C123.863 255.245 118.368 249.44 113.474 242.834C103.679 229.61 96.3678 213.278 95.0456 201.44C93.8927 191.117 97.5555 182.984 102.56 174.958C103.973 172.691 105.498 170.428 107.049 168.124C110.972 162.302 115.065 156.226 117.95 149.214C118.178 148.661 118.407 148.107 118.637 147.551C120.707 142.547 122.821 137.435 124.137 132.156C125.338 127.339 125.823 121.793 126.163 115.948C126.258 114.322 126.341 112.674 126.425 111.01C126.644 106.677 126.868 102.24 127.31 97.8296C128.534 85.625 131.413 73.8029 140.325 65.4133C141.705 64.1144 143.243 62.5864 144.937 60.9026C150.802 55.0738 158.547 47.3772 168.135 40.8484C180.477 32.4447 195.81 26.0272 213.971 28.1134C217.239 28.4888 220.414 29.4692 223.363 30.9438C232.933 35.7303 244.405 43.6436 254.123 51.8816C258.98 55.9993 263.391 60.1912 266.902 64.1059C270.421 68.0285 273.008 71.6427 274.252 74.6057C276.997 81.184 282.072 94.5605 285.888 108.487C287.796 115.45 289.386 122.541 290.214 128.982C291.044 135.433 291.103 141.187 289.981 145.5C287.703 154.264 281.68 169.322 274.708 183.987C267.732 198.66 259.843 212.86 253.852 219.941C247.904 226.947 238.165 231.191 227.976 233.884C218.019 236.516 207.717 237.647 200.277 238.463L199.792 238.516Z" stroke="#FFD5BE"/>
<path d="M287.624 269.442C287.624 272.204 285.385 274.442 282.624 274.442L122.838 274.442C120.076 274.442 117.838 272.204 117.838 269.442L117.838 167.781C117.838 165.02 120.076 162.781 122.838 162.781L282.624 162.781C285.385 162.781 287.624 165.02 287.624 167.781L287.624 269.442Z" fill="#FDFBFC"/>
<path d="M287.624 269.442C287.624 272.204 285.385 274.442 282.624 274.442L122.838 274.442C120.076 274.442 117.838 272.204 117.838 269.442L117.838 167.781C117.838 165.02 120.076 162.781 122.838 162.781L282.624 162.781C285.385 162.781 287.624 165.02 287.624 167.781L287.624 269.442Z" fill="url(#paint0_linear_7124_63519)" fill-opacity="0.3"/>
<path d="M139.671 72.7761C145.782 55.0375 163.229 60.4466 166.25 71.192C170.783 84.9846 162.365 105.395 154.903 105.596C146.909 105.811 133.105 91.8385 139.671 72.7761Z" stroke="#2E317D" stroke-linecap="round"/>
<path d="M140.767 83.0085C149.655 83.2938 158.878 78.1104 160.785 71.228C160.942 70.6605 161.513 70.2838 162.054 70.5172C164.446 71.55 167.089 73.9659 168.613 76.1498C169.104 76.8521 170.354 76.9205 170.857 76.2273C172.581 73.8504 174.296 71.9991 172.011 68.9478C171.589 68.3848 171.765 67.549 172.325 67.1235C175.473 64.7315 172.027 60.6363 167.799 58.7559C166.372 58.1214 166.369 54.2437 165.317 51.7537C162.762 45.7022 155.516 49.5482 153.286 52.3397C152.925 52.7917 152.287 53.0337 151.755 52.8053C141.793 48.5245 137.111 53.3479 131.77 59.07C124.766 66.5757 126.036 70.5115 125.787 72.5223C124.05 86.5736 132.864 91.4348 134.258 92.2645C135.652 93.0943 139.667 92.8623 139.132 90.8061C138.562 88.6122 137.935 82.9176 140.767 83.0085Z" fill="#2E317D" stroke="#2E317D" stroke-linecap="round"/>
<path d="M141.635 95.666C144.257 107.651 142.176 112.564 138.639 114.392C123.284 122.331 117.437 124.668 101.842 150.893C88.7304 172.942 85.5564 180.756 82.102 200.539C82.0727 200.707 82.0863 200.885 82.1438 201.046C88.1787 217.935 103.624 229.367 117.557 243.299M117.557 232.299C112.557 221.752 110.557 214.799 100.812 195.663" stroke="#2E317D" stroke-linecap="round"/>
<path d="M117.668 172.443C109.088 184.33 105.084 187.924 101.938 195.664" stroke="#2E317D" stroke-linecap="round"/>
<path d="M163.734 113.643C171.974 146.6 143.51 135.365 137.143 115.89" stroke="#2E317D" stroke-linecap="round"/>
<path d="M200.527 142.49C195.092 144.937 190.918 154.267 189.51 158.626" stroke="#2E317D" stroke-linecap="round"/>
<path d="M188.826 152.219C187.408 167.799 188.59 159.684 188.826 162.8" stroke="#2E317D" stroke-linecap="round"/>
<path d="M158.32 104.994C158.32 110.23 161.608 113.161 163.532 113.429C173.955 114.884 181.772 119.828 193.353 131.463" stroke="#2E317D" stroke-linecap="round"/>
<path d="M188.179 158.409C188.971 158.409 203.076 162.246 208.624 162.513C214.172 162.779 220.641 162.544 223.736 160.461C225.321 159.394 224.238 158.31 225.217 152.253C226.403 144.925 207.97 130.512 195.288 119.312C186.882 111.887 181.66 106.258 178.248 103.578C176.619 101.892 173.245 97.665 172.77 94.2489C172.215 90.2438 171.137 90.4649 165.137 88.9662C164.502 88.8073 163.878 89.284 163.857 89.9392C163.788 92.0316 163.564 95.5962 163.009 99.4723C162.998 99.548 162.995 99.625 163.004 99.7009C163.35 102.425 167.664 104.668 169.807 105.458C173.77 106.524 187.362 122.779 195.288 133.713C201.629 142.46 202.166 143.493 203.883 145.804" stroke="#2E317D" stroke-linecap="round"/>
<path d="M96.0391 162.602C104.68 162.602 112.096 171.944 114.723 176.614" stroke="#2E317D" stroke-linecap="round"/>
<rect x="253.795" y="213.105" width="26.2474" height="41.8173" rx="0.5" stroke="#FDFBFC"/>
<path d="M133.557 229.299C133.557 227.09 135.348 225.299 137.557 225.299C139.766 225.299 141.557 227.09 141.557 229.299V270.299H133.557V229.299Z" stroke="#FDFBFC"/>
<path d="M164.557 250.799C164.557 248.866 166.124 247.299 168.057 247.299C169.99 247.299 171.557 248.866 171.557 250.799V270.299H164.557V250.799Z" stroke="#FDFBFC"/>
<path d="M197.557 206.799C197.557 204.866 199.124 203.299 201.057 203.299C202.99 203.299 204.557 204.866 204.557 206.799V270.299H197.557V206.799Z" stroke="#FDFBFC"/>
<path d="M233.557 241.299C233.557 239.09 235.348 237.299 237.557 237.299C239.766 237.299 241.557 239.09 241.557 241.299V270.299H233.557V241.299Z" stroke="#FDFBFC"/>
<rect x="0.680615" y="-0.191738" width="22.3671" height="23.5181" rx="0.5" transform="matrix(0.872352 0.488877 0.488877 -0.872352 268.899 218.386)" stroke="#2E317D"/>
<rect x="253.295" y="113.736" width="34.2538" height="35.0323" rx="1" fill="#6568BC"/>
<rect x="270.422" y="142.541" width="46.7098" height="47.4883" rx="1" fill="#FEA28D"/>
<rect x="61.7832" y="60.7969" width="51.3808" height="52.9377" rx="1" fill="#FEA28D"/>
<rect x="54" y="102.836" width="33.4753" height="34.2538" rx="1" fill="#6568BC"/>
<rect x="96.8184" y="123.078" width="21.7979" height="22.5764" rx="1" fill="#6568BC"/>
<rect x="298.447" y="70.918" width="21.7979" height="22.5764" rx="1" fill="#FEA28D"/>
<path d="M128.057 246.877C127.78 246.877 127.557 247.101 127.557 247.377C127.557 247.653 127.78 247.877 128.057 247.877V246.877ZM259.238 197.345C259.195 197.072 258.938 196.886 258.665 196.93L254.222 197.642C253.949 197.686 253.764 197.943 253.808 198.215C253.851 198.488 254.108 198.674 254.38 198.63L258.33 197.997L258.963 201.946C259.007 202.219 259.263 202.405 259.536 202.361C259.809 202.317 259.994 202.061 259.951 201.788L259.238 197.345ZM215.099 255.682L215.468 255.345L215.099 255.682ZM216.648 255.594L216.243 255.301L216.648 255.594ZM183.201 222.148L182.88 221.765L183.201 222.148ZM184.582 222.241L184.952 221.903L184.582 222.241ZM153.387 247.144L153.708 247.527L153.387 247.144ZM128.057 247.877H152.744V246.877H128.057V247.877ZM153.708 247.527L183.522 222.531L182.88 221.765L153.066 246.761L153.708 247.527ZM184.213 222.578L214.73 256.019L215.468 255.345L184.952 221.903L184.213 222.578ZM217.053 255.887L259.15 197.717L258.34 197.131L216.243 255.301L217.053 255.887ZM214.73 256.019C215.371 256.721 216.495 256.658 217.053 255.887L216.243 255.301C216.057 255.558 215.682 255.579 215.468 255.345L214.73 256.019ZM183.522 222.531C183.728 222.359 184.032 222.38 184.213 222.578L184.952 221.903C184.41 221.31 183.496 221.249 182.88 221.765L183.522 222.531ZM152.744 247.877C153.097 247.877 153.438 247.753 153.708 247.527L153.066 246.761C152.975 246.836 152.862 246.877 152.744 246.877V247.877Z" fill="#2E317D"/>
<path d="M135.057 270.299C134.78 270.299 134.557 270.523 134.557 270.799C134.557 271.075 134.78 271.299 135.057 271.299V270.299ZM284.103 271.152C284.298 270.957 284.298 270.641 284.103 270.445L280.921 267.263C280.726 267.068 280.409 267.068 280.214 267.263C280.019 267.459 280.019 267.775 280.214 267.97L283.042 270.799L280.214 273.627C280.019 273.823 280.019 274.139 280.214 274.334C280.409 274.53 280.726 274.53 280.921 274.334L284.103 271.152ZM135.057 271.299H283.749V270.299H135.057V271.299Z" fill="#FDFBFC"/>
<path d="M183 247.248H191.174" stroke="#FDFBFC" stroke-linecap="round"/>
<path d="M180 250.752L193.234 250.752" stroke="#FDFBFC" stroke-linecap="round"/>
<path d="M183 179.129H191.174" stroke="#FDFBFC" stroke-linecap="round"/>
<path d="M180 183.021L193.234 183.021" stroke="#FDFBFC" stroke-linecap="round"/>
<path d="M179 171.344H194.57" stroke="#FDFBFC" stroke-linecap="round"/>
<path d="M174 175.236L199.69 175.236" stroke="#FDFBFC" stroke-linecap="round"/>
<path d="M192 112.957H183.437" stroke="#FDFBFC" stroke-linecap="round"/>
<path d="M194 116.07L179.987 116.07" stroke="#FDFBFC" stroke-linecap="round"/>
<path d="M195 106.729H178.652" stroke="#FDFBFC" stroke-linecap="round"/>
<path d="M200 109.844L172.753 109.844" stroke="#FDFBFC" stroke-linecap="round"/>
<defs>
<linearGradient id="paint0_linear_7124_63519" x1="206.699" y1="162.781" x2="206.699" y2="262.326" gradientUnits="userSpaceOnUse">
<stop stop-color="#4D50A4"/>
<stop offset="1" stop-color="#FEA28D"/>
</linearGradient>
</defs>
</svg>
