<svg width="375" height="520" viewBox="0 0 375 520" fill="none" xmlns="http://www.w3.org/2000/svg">
<path d="M13.0645 475.086C11.7653 474.157 10.5442 472.692 9.37415 470.771C8.20646 468.854 7.10784 466.515 6.04132 463.868C4.26307 459.455 2.59279 454.239 0.844602 448.778C0.494016 447.683 0.140294 446.579 -0.218062 445.469C-2.35881 438.837 -4.66178 432.029 -7.43517 426.082C-10.2047 420.143 -13.47 415.001 -17.5662 411.753C-25.5082 405.454 -30.8946 398.626 -32.8828 391.336C-34.8658 384.066 -33.4929 376.245 -27.7314 367.903C-25.3091 364.396 -23.044 362.334 -20.8314 361.125C-18.6238 359.918 -16.4329 359.541 -14.1155 359.462C-12.9003 359.421 -11.6372 359.465 -10.3168 359.511C-6.63878 359.638 -2.5162 359.781 2.25416 358.142C7.87255 356.211 13.3211 353.503 18.1118 350.103C21.5577 347.657 24.9431 344.402 28.4022 340.92C29.1597 340.157 29.9207 339.383 30.6871 338.604C33.4291 335.817 36.2392 332.96 39.2002 330.286C46.779 323.441 55.2473 317.889 65.7933 317.9C67.4672 317.901 69.3769 317.852 71.4809 317.797C78.7019 317.609 88.2107 317.362 98.3252 318.924C111.367 320.938 125.334 325.953 136.523 337.946C138.832 340.422 140.657 343.302 141.97 346.387C145.736 355.228 149.029 367.062 150.964 378.025C151.93 383.504 152.556 388.756 152.733 393.299C152.911 397.852 152.636 401.652 151.827 404.254C149.994 410.099 145.923 421.682 140.684 432.857C138.064 438.445 135.157 443.921 132.097 448.525C129.031 453.136 125.836 456.834 122.653 458.904C116.171 463.12 103.592 469.099 90.5846 474.258C77.5697 479.419 64.2043 483.727 56.1432 484.638C39.9677 486.439 24.0332 482.93 13.0645 475.086Z" stroke="#DCD6F7"/>
<path d="M3.90041 480.416C2.60124 479.487 1.38016 478.022 0.210086 476.101C-0.957599 474.184 -2.05623 471.845 -3.12274 469.198C-4.90099 464.786 -6.57128 459.569 -8.31946 454.109C-8.67005 453.014 -9.02377 451.909 -9.38212 450.799C-11.5229 444.167 -13.8258 437.359 -16.5992 431.412C-19.3688 425.473 -22.6341 420.331 -26.7303 417.083C-34.6723 410.784 -40.0587 403.956 -42.0469 396.666C-44.0298 389.396 -42.6569 381.575 -36.8955 373.233C-34.4731 369.726 -32.208 367.664 -29.9955 366.455C-27.7878 365.248 -25.5969 364.871 -23.2796 364.793C-22.0644 364.751 -20.8013 364.795 -19.4809 364.841C-15.8028 364.968 -11.6803 365.111 -6.9099 363.472C-1.29151 361.541 4.15708 358.833 8.94775 355.433C12.3936 352.988 15.7791 349.733 19.2381 346.25C19.9956 345.487 20.7566 344.713 21.523 343.934C24.265 341.147 27.0751 338.29 30.0362 335.616C37.6149 328.771 46.0833 323.219 56.6292 323.23C58.3031 323.231 60.2129 323.182 62.3168 323.127C69.5378 322.939 79.0466 322.692 89.1611 324.254C102.203 326.268 116.17 331.283 127.358 343.276C129.668 345.752 131.493 348.632 132.806 351.717C136.572 360.558 139.865 372.392 141.799 383.355C142.766 388.834 143.392 394.086 143.569 398.629C143.747 403.182 143.472 406.983 142.663 409.584C140.83 415.429 136.759 427.012 131.52 438.187C128.9 443.775 125.993 449.251 122.933 453.855C119.867 458.466 116.672 462.164 113.489 464.234C107.007 468.45 94.4281 474.429 81.4205 479.588C68.4057 484.749 55.0402 489.057 46.9791 489.968C30.8036 491.769 14.8691 488.26 3.90041 480.416Z" stroke="#DCD6F7"/>
<path d="M-3.27732 493.87C-4.5765 492.94 -5.79758 491.475 -6.96765 489.554C-8.13533 487.637 -9.23396 485.298 -10.3005 482.651C-12.0787 478.239 -13.749 473.022 -15.4972 467.562C-15.8478 466.467 -16.2015 465.362 -16.5599 464.252C-18.7006 457.621 -21.0036 450.812 -23.777 444.865C-26.5465 438.926 -29.8118 433.785 -33.908 430.536C-41.85 424.237 -47.2364 417.409 -49.2246 410.119C-51.2076 402.849 -49.8347 395.028 -44.0732 386.686C-41.6509 383.179 -39.3858 381.117 -37.1732 379.908C-34.9656 378.701 -32.7747 378.325 -30.4573 378.246C-29.2421 378.204 -27.979 378.248 -26.6586 378.294C-22.9806 378.421 -18.858 378.564 -14.0876 376.925C-8.46925 374.994 -3.02065 372.286 1.77001 368.886C5.2159 366.441 8.60133 363.186 12.0604 359.703C12.8179 358.94 13.5789 358.166 14.3453 357.387C17.0873 354.6 19.8974 351.743 22.8584 349.069C30.4372 342.224 38.9055 336.672 49.4515 336.683C51.1254 336.684 53.0351 336.635 55.1391 336.58C62.3601 336.393 71.8689 336.146 81.9834 337.707C95.0252 339.721 108.992 344.736 120.181 356.729C122.49 359.205 124.315 362.085 125.628 365.17C129.394 374.011 132.687 385.845 134.622 396.808C135.589 402.287 136.214 407.539 136.391 412.082C136.569 416.635 136.294 420.436 135.485 423.037C133.653 428.882 129.581 440.465 124.342 451.64C121.722 457.228 118.815 462.704 115.755 467.308C112.689 471.92 109.494 475.617 106.312 477.687C99.829 481.903 87.2504 487.882 74.2428 493.041C61.2279 498.202 47.8625 502.51 39.8014 503.421C23.6259 505.222 7.69137 501.713 -3.27732 493.87Z" stroke="#DCD6F7"/>
<path d="M-11.6621 506.03C-12.9613 505.1 -14.1823 503.635 -15.3524 501.714C-16.5201 499.798 -17.6187 497.458 -18.6852 494.811C-20.4635 490.399 -22.1338 485.182 -23.882 479.722C-24.2325 478.627 -24.5863 477.522 -24.9446 476.412C-27.0854 469.781 -29.3883 462.972 -32.1617 457.025C-34.9313 451.086 -38.1966 445.945 -42.2928 442.696C-50.2348 436.397 -55.6212 429.569 -57.6094 422.279C-59.5923 415.009 -58.2194 407.188 -52.458 398.846C-50.0356 395.339 -47.7705 393.277 -45.558 392.068C-43.3503 390.862 -41.1594 390.485 -38.8421 390.406C-37.6269 390.364 -36.3638 390.408 -35.0434 390.454C-31.3653 390.581 -27.2428 390.724 -22.4724 389.085C-16.854 387.155 -11.4054 384.446 -6.61475 381.046C-3.16886 378.601 0.216565 375.346 3.67559 371.863C4.43311 371.1 5.19414 370.326 5.96049 369.547C8.70251 366.76 11.5126 363.903 14.4737 361.229C22.0524 354.385 30.5208 348.833 41.0667 348.843C42.7406 348.845 44.6504 348.795 46.7543 348.74C53.9753 348.553 63.4841 348.306 73.5986 349.868C86.6405 351.881 100.607 356.896 111.796 368.889C114.106 371.365 115.93 374.246 117.244 377.33C121.01 386.172 124.302 398.005 126.237 408.968C127.204 414.448 127.83 419.699 128.007 424.242C128.184 428.795 127.909 432.596 127.1 435.197C125.268 441.043 121.196 452.625 115.957 463.8C113.337 469.388 110.43 474.865 107.37 479.468C104.304 484.08 101.11 487.777 97.9269 489.847C91.4442 494.064 78.8656 500.042 65.858 505.201C52.8432 510.362 39.4777 514.671 31.4166 515.582C15.2411 517.383 -0.693393 513.873 -11.6621 506.03Z" stroke="#DCD6F7"/>
<path d="M348.544 126.83C347.683 126.924 346.645 126.757 345.44 126.358C344.238 125.961 342.903 125.344 341.46 124.571C339.053 123.282 336.39 121.586 333.595 119.804C333.033 119.447 332.467 119.086 331.896 118.724C328.493 116.568 324.945 114.389 321.517 112.792C318.096 111.198 314.737 110.153 311.722 110.323C306 110.646 301.195 109.705 297.662 107.225C294.146 104.756 291.814 100.708 291.137 94.6462C290.668 90.4445 291.485 88.2126 292.797 86.5293C293.47 85.6669 294.285 84.9317 295.189 84.1357C295.246 84.0853 295.304 84.0348 295.362 83.9839C296.21 83.2381 297.123 82.435 298.001 81.4499C302.094 76.8591 303.897 70.4749 304.544 64.4638C304.768 62.3886 304.88 60.1687 304.994 57.9033C305.015 57.4958 305.035 57.0868 305.057 56.6769C305.198 53.9804 305.37 51.236 305.76 48.5629C306.54 43.2134 308.178 38.2161 312.092 34.5314C312.811 33.8548 313.609 33.0616 314.487 32.1893C317.344 29.3506 321.044 25.6734 325.598 22.445C331.538 18.2348 338.867 14.8409 347.516 15.1629C350.773 15.2841 353.94 16.3098 356.809 17.9146C361.607 20.5989 367.025 24.4996 371.546 28.4553C373.806 30.4324 375.835 32.4175 377.448 34.265C379.066 36.1189 380.241 37.8074 380.823 39.1923C382.237 42.5805 384.853 49.4743 386.819 56.6494C387.802 60.2371 388.619 63.8848 389.045 67.1939C389.472 70.5135 389.497 73.4464 388.931 75.6272C387.761 80.1279 384.66 87.8828 381.063 95.4477C377.463 103.02 373.403 110.323 370.333 113.951C364.15 121.235 356.094 126.001 348.544 126.83Z" stroke="#FFD5BE"/>
<path d="M346.646 132.936C345.785 133.03 344.747 132.863 343.541 132.464C342.34 132.066 341.005 131.449 339.562 130.677C337.155 129.388 334.492 127.691 331.696 125.91C331.135 125.552 330.568 125.191 329.998 124.829C326.595 122.673 323.047 120.495 319.618 118.897C316.198 117.303 312.839 116.259 309.823 116.429C304.101 116.751 299.296 115.81 295.764 113.33C292.248 110.861 289.916 106.814 289.239 100.752C288.77 96.5499 289.586 94.3181 290.899 92.6348C291.571 91.7724 292.387 91.0372 293.291 90.2412C293.348 90.1908 293.405 90.1402 293.463 90.0894C294.311 89.3436 295.225 88.5404 296.103 87.5553C300.196 82.9646 301.999 76.5804 302.646 70.5693C302.869 68.4941 302.981 66.2742 303.096 64.0088C303.116 63.6013 303.137 63.1923 303.158 62.7824C303.299 60.0859 303.472 57.3415 303.862 54.6683C304.641 49.3189 306.28 44.3216 310.194 40.6368C310.913 39.9602 311.711 39.1671 312.589 38.2948C315.445 35.4561 319.145 31.7788 323.7 28.5505C329.64 24.3403 336.969 20.9464 345.618 21.2684C348.874 21.3896 352.042 22.4153 354.91 24.0201C359.709 26.7044 365.126 30.6051 369.647 34.5607C371.907 36.5379 373.936 38.523 375.549 40.3704C377.168 42.2244 378.343 43.9128 378.925 45.2978C380.339 48.6859 382.954 55.5798 384.92 62.7549C385.903 66.3426 386.721 69.9903 387.147 73.2994C387.573 76.619 387.599 79.5519 387.032 81.7326C385.862 86.2334 382.762 93.9883 379.165 101.553C375.565 109.125 371.505 116.428 368.435 120.057C362.252 127.34 354.196 132.106 346.646 132.936Z" stroke="#FFD5BE"/>
<path d="M348.646 141.936C347.785 142.03 346.747 141.863 345.541 141.464C344.34 141.066 343.005 140.449 341.562 139.677C339.155 138.388 336.492 136.691 333.696 134.91C333.135 134.552 332.568 134.191 331.998 133.829C328.595 131.673 325.047 129.495 321.618 127.897C318.198 126.303 314.839 125.259 311.823 125.429C306.101 125.751 301.296 124.81 297.764 122.33C294.248 119.861 291.916 115.814 291.239 109.752C290.77 105.55 291.586 103.318 292.899 101.635C293.571 100.772 294.387 100.037 295.291 99.2412C295.348 99.1908 295.405 99.1402 295.463 99.0894C296.311 98.3436 297.225 97.5404 298.103 96.5553C302.196 91.9646 303.999 85.5804 304.646 79.5693C304.869 77.494 304.981 75.2741 305.096 73.0086C305.116 72.6012 305.137 72.1922 305.158 71.7824C305.299 69.0859 305.472 66.3415 305.862 63.6683C306.641 58.3189 308.28 53.3216 312.194 49.6368C312.913 48.9602 313.711 48.1671 314.589 47.2948C317.445 44.456 321.145 40.7788 325.7 37.5505C331.64 33.3403 338.969 29.9464 347.618 30.2684C350.874 30.3896 354.042 31.4153 356.91 33.0201C361.709 35.7044 367.126 39.6051 371.647 43.5607C373.907 45.5379 375.936 47.523 377.549 49.3704C379.168 51.2244 380.343 52.9128 380.925 54.2978C382.339 57.6859 384.954 64.5798 386.92 71.7549C387.903 75.3426 388.721 78.9903 389.147 82.2994C389.573 85.619 389.599 88.5519 389.032 90.7326C387.862 95.2334 384.762 102.988 381.165 110.553C377.565 118.125 373.505 125.428 370.435 129.057C364.252 136.34 356.196 141.106 348.646 141.936Z" stroke="#FFD5BE"/>
<path d="M243.176 276.124C250.15 271.94 258.518 272.219 262.145 275.008" stroke="#2E317D" stroke-linecap="round"/>
<path d="M183.784 155.584C189.898 150.748 194.714 137.378 204.941 134.404C205.003 134.386 205.062 134.358 205.115 134.323C205.638 133.97 206.525 134.654 206.417 135.276C205.712 139.367 206.434 146.49 209.455 152.993C211.813 158.07 216.507 160.212 220.439 160.847C222.71 161.214 224.531 162.708 223.326 164.668C221.211 168.11 216.83 172.224 216.665 173.729C216.521 175.048 217.771 175.123 218.845 174.907C219.414 174.793 219.777 174.484 219.446 174.008C219.104 173.516 218.779 172.842 219.689 172.315C242.019 162.183 233.878 137.911 224.341 129.664C215.701 122.192 212.013 124.892 209.455 124.008C199.22 120.474 188.521 126.365 181.31 139.561C174.099 152.757 181.012 162.314 180.38 163.597C180.224 163.913 179.754 164.441 179.461 164.754C179.3 164.927 179.044 165.12 179.13 165.34C179.341 165.876 181.697 165.562 182.008 164.304C182.146 163.742 181.79 161.676 181.528 159.848C181.276 158.091 182.392 156.685 183.784 155.584Z" fill="#2E317D" stroke="#2E317D" stroke-linecap="round"/>
<path d="M222.731 147.764C217.42 128.672 192.384 134.182 186.323 145.638C177.637 160.333 185.664 182.324 195.928 182.659C206.924 183.019 228.439 168.281 222.731 147.764Z" stroke="#2E317D" stroke-linecap="round"/>
<path d="M158.125 161.83C150.513 143.882 128.152 146.495 120.917 159.826C112.147 173.044 121.298 205.382 132.149 204.006C143.775 202.531 166.552 181.701 158.125 161.83Z" fill="#FEA28D" stroke="#FEA28D" stroke-linecap="round"/>
<path d="M193 182.5C194 189.5 191.992 194.275 188.645 195.669C185.298 197.064 171.071 192.88 148.476 217.707C141.502 226.075 136.481 233.607 133.691 236.396" stroke="#2E317D" stroke-linecap="round"/>
<path d="M166.328 234.166C160.893 243.292 139.336 262.48 130.653 264.863" stroke="#2E317D" stroke-linecap="round"/>
<path d="M133.971 236.676C138.992 240.023 142.618 248.392 140.387 258.434" stroke="#2E317D" stroke-linecap="round"/>
<path d="M164.936 236.117C166.944 244.82 165.772 268.941 164.936 279.913" stroke="#2E317D" stroke-linecap="round"/>
<path d="M194.502 301.393C197.849 301.672 198.128 300.835 198.965 300.278C199.802 299.72 204.017 301.246 206.776 300.835C219.887 298.883 234.113 279.356 251.408 275.172" stroke="#2E317D" stroke-linecap="round"/>
<path d="M226.303 237.512C233.667 246.885 240.901 268.382 243.598 277.96" stroke="#2E317D" stroke-linecap="round"/>
<path d="M137.371 193.954L128.208 193.75C127.497 193.734 127.01 194.438 127.319 195.078C128.129 196.758 129.679 199.444 131.461 199.854C133.582 200.342 136.489 197.376 138.091 195.484C138.611 194.87 138.176 193.971 137.371 193.954Z" fill="#FDFBFC"/>
<path d="M120.023 163.312C113.074 168.577 110.712 172.434 110.311 173.946C110.269 174.106 110.29 174.271 110.345 174.428C111.019 176.319 112.218 180.41 111.933 183.397C110.26 200.971 115.921 250.625 122.534 259.272C123.742 260.853 126.997 264.628 130.344 264.851" stroke="#2E317D" stroke-linecap="round"/>
<path d="M118.347 185.07C115 210.734 134.805 232.213 136.2 244.487" stroke="#2E317D" stroke-linecap="round"/>
<path d="M118.348 180.083C118.864 179.627 119.176 179.027 119.349 178.532C119.461 178.209 119.858 178.024 120.149 178.204V178.204C120.219 178.247 120.276 178.307 120.31 178.381C120.545 178.891 120.799 179.943 120.255 180.838C119.668 181.805 118.739 184.062 118.348 185.069" stroke="#2E317D" stroke-linecap="round"/>
<path d="M189.059 195.508C186.549 210.571 200.217 215.871 215.281 195.508" stroke="#2E317D" stroke-linecap="round"/>
<path d="M228.113 240.139C221.976 264.686 224.766 280.587 225.881 290.35" stroke="#2E317D" stroke-linecap="round"/>
<path d="M182.509 251.738C162.604 243.927 147.489 263.454 152.382 279.355C156.009 296.371 188.37 314.019 195.62 304.46C203.387 294.219 204.546 260.386 182.509 251.738Z" fill="#6568BC" stroke="#6568BC" stroke-linecap="round"/>
<path d="M188.15 302.024L194.774 297.738C195.466 297.29 195.342 296.266 194.55 296.036C192.716 295.504 189.99 294.874 188.366 295.255C186.176 295.77 186.4 299.38 186.709 301.409C186.812 302.089 187.573 302.398 188.15 302.024Z" fill="#FDFBFC"/>
<path d="M209.566 176.98C208.451 187.86 214.03 193.718 215.982 195.112C217.935 196.507 234.672 193.439 249.178 222.171C260.022 243.651 262.616 272.487 262.606 286.645C262.605 288.361 261.674 289.936 260.175 290.772C236.496 303.979 214.118 305.128 208.451 308.367C193.866 316.701 188.087 309.483 185.855 307.251C182.645 304.04 195.619 305.019 196.456 305.019" stroke="#2E317D" stroke-linecap="round"/>
<path d="M207 134C201.928 139.333 201.674 144.222 202.181 146" stroke="#2E317D" stroke-linecap="round"/>
<ellipse cx="103.369" cy="280.135" rx="23" ry="23.5" fill="#FEA28D"/>
<circle cx="105.869" cy="148.133" r="14.5" fill="#6568BC"/>
<ellipse cx="88.3691" cy="171.133" rx="8" ry="8.5" fill="#FEA28D"/>
<circle cx="284.369" cy="302.635" r="16" fill="#6568BC"/>
<path d="M88.3691 174.635C88.3691 175.187 87.6976 175.635 86.8691 175.635C86.0407 175.635 85.3691 175.187 85.3691 174.635" stroke="#FDFBFC" stroke-linecap="round"/>
<path d="M116.369 291.635C116.369 293.844 114.802 295.635 112.869 295.635C110.936 295.635 109.369 293.844 109.369 291.635" stroke="#FDFBFC" stroke-linecap="round"/>
<path d="M107.369 157.633C107.369 155.976 108.712 154.633 110.369 154.633C112.026 154.633 113.369 155.976 113.369 157.633" stroke="#FDFBFC" stroke-linecap="round"/>
<path d="M276.369 313.635C276.369 311.978 277.712 310.635 279.369 310.635C281.026 310.635 282.369 311.978 282.369 313.635" stroke="#FDFBFC" stroke-linecap="round"/>
<path d="M206.983 241.017C204.489 249.769 194.225 272.39 188.153 277.668C182.081 282.947 171.796 286.3 161.316 284.464C152.783 282.968 144.853 280.454 135.318 274.807C130.708 272.077 125.874 269.458 121.908 265.856C112.254 257.085 97.5406 237.974 92.5954 225.167C89.0267 215.925 87.21 198.658 97.6826 179.922C99.3178 176.997 101.416 174.289 104.242 172.487C114.42 165.995 131.609 163.992 139.177 163.91C147.853 163.836 168.462 169.999 177.325 176.612C186.188 183.226 196.755 199.717 202.016 209.777C207.261 219.846 209.482 232.24 206.983 241.017Z" fill="url(#paint0_linear_7124_63366)" fill-opacity="0.3"/>
<path d="M123.233 295.517C122.692 297.415 121.293 300.859 119.688 304.13C118.887 305.762 118.04 307.34 117.229 308.65C116.411 309.974 115.655 310.983 115.043 311.514C112.469 313.752 108.065 315.198 103.567 314.41C101.071 313.972 98.702 313.338 96.1643 312.23C91.3083 310.111 86.7577 307.045 83.2536 303.104C79.4273 298.8 75.1691 292.771 73.5011 288.451C72.1248 284.887 71.3355 278.478 74.494 271.298C75.8103 268.306 77.9445 265.702 80.8805 264.47C85.2472 262.637 90.9218 262.021 93.6773 261.992C95.5176 261.976 98.6992 262.63 101.939 263.67C105.177 264.71 108.378 266.105 110.275 267.52C112.173 268.937 114.288 271.442 116.234 274.183C118.173 276.913 119.914 279.835 121.07 282.044C123.357 286.434 124.293 291.791 123.233 295.517Z" stroke="#FFD5BE"/>
<path d="M126.692 295.517C126.151 297.415 124.752 300.859 123.147 304.13C122.346 305.762 121.499 307.34 120.688 308.65C119.87 309.974 119.114 310.983 118.502 311.514C115.928 313.752 111.524 315.198 107.026 314.41C104.53 313.972 102.161 313.338 99.6233 312.23C94.7673 310.111 90.2166 307.045 86.7126 303.104C82.8863 298.8 78.628 292.771 76.9601 288.451C75.5837 284.887 74.7945 278.478 77.9529 271.298C79.2693 268.306 81.4035 265.702 84.3395 264.47C88.7062 262.637 94.3808 262.021 97.1363 261.992C98.9766 261.976 102.158 262.63 105.398 263.67C108.636 264.71 111.837 266.105 113.734 267.52C115.632 268.937 117.747 271.442 119.693 274.183C121.632 276.913 123.373 279.835 124.529 282.044C126.816 286.434 127.752 291.791 126.692 295.517Z" stroke="#FFD5BE"/>
<path d="M122.988 279.82C123.727 281.65 124.738 285.227 125.48 288.794C125.851 290.574 126.151 292.34 126.316 293.872C126.483 295.419 126.507 296.68 126.351 297.475C125.694 300.822 123.106 304.668 119.073 306.808C116.834 307.996 114.575 308.95 111.892 309.635C106.758 310.945 101.284 311.32 96.098 310.363C90.4354 309.317 83.3716 307.174 79.4022 304.789C76.1267 302.822 71.5677 298.249 69.6503 290.643C68.8512 287.473 68.936 284.107 70.4962 281.332C72.8167 277.204 76.9167 273.233 79.073 271.517C80.5156 270.374 83.4281 268.936 86.6239 267.767C89.8174 266.599 93.2006 265.733 95.5664 265.685C97.9344 265.637 101.143 266.316 104.362 267.283C107.568 268.247 110.737 269.483 113.006 270.517C117.507 272.577 121.536 276.228 122.988 279.82Z" stroke="#FFD5BE"/>
<path d="M125.72 277.695C126.459 279.525 127.471 283.102 128.213 286.669C128.583 288.449 128.883 290.215 129.049 291.747C129.216 293.294 129.239 294.555 129.083 295.35C128.426 298.697 125.839 302.543 121.805 304.683C119.566 305.871 117.307 306.825 114.624 307.51C109.491 308.82 104.016 309.195 98.8304 308.238C93.1678 307.192 86.104 305.049 82.1347 302.664C78.8591 300.697 74.3002 296.124 72.3827 288.518C71.5836 285.348 71.6684 281.982 73.2286 279.207C75.5492 275.079 79.6491 271.108 81.8054 269.392C83.248 268.249 86.1605 266.811 89.3563 265.642C92.5499 264.474 95.933 263.608 98.2988 263.56C100.667 263.512 103.875 264.191 107.094 265.158C110.301 266.122 113.469 267.358 115.739 268.392C120.239 270.452 124.269 274.103 125.72 277.695Z" stroke="#FFD5BE"/>
<path d="M92.3302 179.57C90.6114 177.9 87.7382 174.429 85.1714 170.841C83.8901 169.05 82.6923 167.24 81.7578 165.621C80.816 163.989 80.1668 162.593 79.9471 161.62C79.031 157.563 80.0225 152.008 83.4596 147.643C85.6695 144.836 88.0681 142.363 91.3853 139.977C95.7077 136.869 100.479 134.194 105.578 132.847C112.497 131.02 122.411 129.683 128.454 130.443C133.234 131.043 140.906 134.076 146.864 142.205C148.804 144.853 150.115 147.941 149.949 151.134C149.641 157.094 146.814 164.119 145.165 167.264C144.119 169.25 141.589 172.275 138.62 175.134C135.654 177.991 132.322 180.612 129.711 181.829C127.098 183.048 123.202 183.867 119.163 184.37C115.137 184.871 111.021 185.053 107.999 185.018C101.993 184.938 95.7186 182.861 92.3302 179.57Z" stroke="#DCD6F7"/>
<path d="M90.3478 183.259C88.629 181.589 85.7558 178.118 83.189 174.531C81.9077 172.74 80.7099 170.929 79.7754 169.31C78.8336 167.678 78.1844 166.283 77.9647 165.309C77.0485 161.252 78.04 155.698 81.4772 151.332C83.6871 148.525 86.0857 146.052 89.4029 143.667C93.7253 140.559 98.4963 137.884 103.596 136.537C110.514 134.709 120.428 133.373 126.471 134.132C131.251 134.733 138.924 137.766 144.881 145.894C146.822 148.542 148.132 151.631 147.967 154.824C147.658 160.783 144.831 167.809 143.183 170.954C142.137 172.939 139.606 175.964 136.638 178.823C133.672 181.68 130.34 184.302 127.729 185.519C125.116 186.737 121.219 187.556 117.181 188.059C113.155 188.561 109.039 188.742 106.017 188.707C100.011 188.627 93.7361 186.551 90.3478 183.259Z" stroke="#FFD5BE"/>
<path d="M109.257 188.337C106.875 188.074 102.476 187.1 98.2468 185.845C96.1356 185.219 94.0784 184.526 92.3464 183.822C90.6009 183.113 89.2315 182.41 88.4604 181.777C85.2454 179.138 82.6163 174.146 82.6474 168.59C82.6674 165.017 83.0412 161.592 84.194 157.672C85.696 152.565 87.8181 147.524 91.0152 143.328C95.3525 137.637 102.355 130.493 107.59 127.381C111.731 124.919 119.649 122.6 129.343 125.356C132.5 126.253 135.432 127.886 137.262 130.507C140.679 135.399 142.763 142.68 143.394 146.174C143.788 148.384 143.649 152.325 143.063 156.404C142.476 160.481 141.457 164.596 140.144 167.16C138.831 169.727 136.259 172.766 133.381 175.644C130.512 178.512 127.375 181.184 124.969 183.012C120.18 186.638 113.953 188.853 109.257 188.337Z" stroke="#DCD6F7"/>
<path d="M109.959 192.466C107.576 192.203 103.177 191.229 98.9479 189.974C96.8368 189.348 94.7796 188.655 93.0476 187.951C91.302 187.242 89.9327 186.539 89.1615 185.906C85.9466 183.267 83.3175 178.275 83.3486 172.718C83.3686 169.146 83.7423 165.721 84.8951 161.801C86.3972 156.694 88.5193 151.652 91.7164 147.457C96.0537 141.766 103.056 134.622 108.292 131.51C112.433 129.048 120.35 126.729 130.044 129.485C133.202 130.382 136.133 132.015 137.963 134.636C141.38 139.528 143.465 146.809 144.095 150.303C144.489 152.513 144.35 156.454 143.764 160.533C143.178 164.61 142.159 168.725 140.846 171.289C139.532 173.856 136.96 176.895 134.082 179.773C131.213 182.641 128.076 185.312 125.67 187.141C120.881 190.766 114.654 192.982 109.959 192.466Z" stroke="#FFD5BE"/>
<path d="M285.127 286.878C275.203 299.303 257.155 307.164 241.041 310.347C224.96 313.52 169.12 332 156.649 328.977C144.217 325.969 127.856 322.751 121.305 315.403C114.755 308.055 99.3421 280.25 104.201 264.568C107.69 250.482 126.035 227.562 134.22 214.82C142.445 202.081 188.973 189.579 207.469 188.631C225.972 187.708 240.617 191.596 255.99 199.971C271.363 208.346 285.149 230.317 291.039 243.834C296.888 257.363 295.075 274.417 285.127 286.878Z" fill="url(#paint1_linear_7124_63366)" fill-opacity="0.3"/>
<path d="M271.982 314.431L271.982 314.431L265.614 283.1L266.034 283.371C266.034 283.371 266.034 283.371 266.034 283.37C266.53 282.602 267.665 281.768 269.274 280.943C270.86 280.13 272.83 279.363 274.901 278.693C279.052 277.353 283.536 276.429 286.054 276.3C291.111 276.048 295.102 277.106 299.313 279.4C301.363 280.516 303.343 282.564 305.026 284.834C306.705 287.096 308.057 289.536 308.862 291.385C310.421 294.99 309.937 299.546 307.283 302.871C304.622 306.203 299.725 308.358 295.289 309.234C293.884 309.511 291.396 310.205 288.549 310.998C286.818 311.48 284.954 312 283.12 312.485C280.681 313.13 278.283 313.719 276.284 314.094C275.284 314.281 274.392 314.414 273.649 314.474C272.895 314.534 272.337 314.517 271.982 314.431Z" stroke="#DCD6F7"/>
<path d="M269.244 317.283L269.244 317.283L259.075 286.971L259.525 287.189C259.525 287.189 259.525 287.189 259.525 287.189C259.924 286.365 260.947 285.398 262.443 284.382C263.917 283.38 265.778 282.376 267.751 281.458C271.705 279.618 276.043 278.15 278.525 277.712C283.513 276.841 287.604 277.401 292.065 279.16C294.236 280.017 296.453 281.806 298.402 283.852C300.346 285.891 301.987 288.146 303.014 289.882C305.003 293.268 305.083 297.849 302.857 301.475C300.625 305.109 296.03 307.848 291.736 309.263C290.375 309.711 287.991 310.704 285.263 311.841C283.604 312.533 281.818 313.277 280.058 313.984C277.716 314.924 275.41 315.803 273.471 316.42C272.502 316.729 271.633 316.97 270.903 317.121C270.162 317.274 269.606 317.325 269.244 317.283Z" stroke="#DCD6F7"/>
<path d="M270.275 315.395L270.274 315.395L265.696 283.752L266.1 284.047C266.1 284.047 266.1 284.046 266.1 284.046C266.64 283.307 267.82 282.539 269.473 281.807C271.103 281.085 273.113 280.431 275.219 279.881C279.439 278.778 283.969 278.11 286.49 278.125C291.553 278.16 295.478 279.443 299.552 281.973C301.534 283.204 303.395 285.361 304.947 287.723C306.494 290.077 307.705 292.589 308.404 294.481C309.755 298.169 309.014 302.69 306.175 305.859C303.328 309.034 298.317 310.907 293.839 311.53C292.42 311.727 289.896 312.278 287.009 312.908C285.254 313.291 283.363 313.704 281.505 314.084C279.032 314.59 276.606 315.042 274.588 315.302C273.579 315.433 272.681 315.514 271.936 315.532C271.18 315.55 270.624 315.501 270.275 315.395Z" stroke="#DCD6F7"/>
<defs>
<linearGradient id="paint0_linear_7124_63366" x1="195.806" y1="203.698" x2="88.0073" y2="245.584" gradientUnits="userSpaceOnUse">
<stop stop-color="#FEA28D"/>
<stop offset="0.979167" stop-color="#696ABB" stop-opacity="0.81"/>
<stop offset="1" stop-color="#6568BC" stop-opacity="0"/>
</linearGradient>
<linearGradient id="paint1_linear_7124_63366" x1="285.096" y1="232.779" x2="151.05" y2="318.89" gradientUnits="userSpaceOnUse">
<stop stop-color="#FEA28D"/>
<stop offset="0.838542" stop-color="#6568BC" stop-opacity="0.47"/>
</linearGradient>
</defs>
</svg>
