<svg width="375" height="470" viewBox="0 0 375 470" fill="none" xmlns="http://www.w3.org/2000/svg">
<path d="M44.411 43.8837C49.012 43.1308 52.8202 43.4101 56.0296 44.4262C59.238 45.442 61.8793 47.2041 64.1333 49.4612C68.6614 53.9955 71.5961 60.4898 74.3825 66.8664C75.9366 70.4229 76.5855 75.3519 76.4117 80.8985C76.2382 86.4358 75.2462 92.5481 73.5537 98.4481C71.8611 104.349 69.4722 110.022 66.5141 114.687C63.5519 119.359 60.0434 122.981 56.1311 124.836C53.7718 125.955 47.2634 127.605 38.7881 128.25C30.3304 128.895 19.9806 128.535 9.94773 125.683C-0.079486 122.833 -9.77734 117.5 -16.9729 108.2C-24.1693 98.9 -28.9003 85.5845 -28.9004 66.7098C-28.9004 53.7257 -23.6518 44.5224 -17.3638 37.9888C-14.1526 34.6523 -9.78399 32.0269 -5.28354 30.9688C-0.790264 29.9123 3.79326 30.4232 7.52708 33.2894C8.80821 34.2728 9.9553 35.3641 11.1182 36.4996C11.2694 36.6473 11.4209 36.7957 11.573 36.9448C12.5853 37.9365 13.6242 38.9544 14.7674 39.9299C17.414 42.1884 20.6331 44.2334 25.5394 45.3921C28.7288 46.1452 31.9182 46.0117 35.0642 45.5725C36.6374 45.3529 38.2078 45.0556 39.7647 44.7516C39.9811 44.7093 40.1972 44.667 40.4129 44.6246C41.7539 44.3617 43.0837 44.1009 44.411 43.8837Z" stroke="#FFD5BE"/>
<path d="M373.508 371.062C368.974 392.824 362.105 405.38 354.385 413.273C346.607 421.226 337.823 424.612 329.279 427.728C324.892 429.328 319.822 428.801 314.725 426.557C309.638 424.316 304.562 420.382 300.158 415.241C291.338 404.946 285.268 389.883 287.091 374.048C287.641 369.265 290.502 356.757 295.612 341.069C300.718 325.392 308.048 306.603 317.51 289.257C326.972 271.91 338.531 256.069 352.101 246.183C365.666 236.3 381.349 232.289 399.073 238.841C415.141 244.78 418.952 265.07 419.287 283.103C419.414 289.9 417.961 297.895 413.807 305.831C409.058 314.904 404.506 319.143 399.657 323.659C398.835 324.424 398.006 325.196 397.165 326.002C394.261 328.784 391.251 331.941 388.095 336.479C384.941 341.014 381.664 346.894 378.193 355.111C375.885 360.576 374.577 365.93 373.508 371.062Z" stroke="#DCD6F7"/>
<path d="M371.776 364.21C367.242 385.973 360.373 398.528 352.653 406.422C344.875 414.375 336.09 417.761 327.546 420.877C323.159 422.476 318.089 421.95 312.992 419.705C307.905 417.465 302.83 413.53 298.426 408.39C289.605 398.094 283.536 383.032 285.358 367.196C285.909 362.413 288.77 349.906 293.879 334.218C298.985 318.54 306.316 299.751 315.778 282.405C325.24 265.058 336.798 249.218 350.369 239.331C363.934 229.449 379.616 225.438 397.34 231.989C413.409 237.929 417.219 258.218 417.555 276.251C417.681 283.049 416.229 291.043 412.075 298.979C407.326 308.052 402.773 312.292 397.924 316.807C397.103 317.572 396.273 318.345 395.433 319.15C392.529 321.932 389.519 325.089 386.362 329.628C383.208 334.162 379.932 340.042 376.461 348.26C374.152 353.725 372.845 359.078 371.776 364.21Z" stroke="#DCD6F7"/>
<path d="M363.334 361.089C358.8 382.852 351.931 395.407 344.211 403.301C336.433 411.254 327.649 414.64 319.105 417.756C314.718 419.355 309.648 418.829 304.551 416.584C299.464 414.343 294.388 410.409 289.984 405.269C281.164 394.973 275.094 379.911 276.917 364.075C277.467 359.292 280.328 346.785 285.438 331.097C290.544 315.419 297.874 296.63 307.336 279.284C316.799 261.937 328.357 246.097 341.927 236.21C355.492 226.327 371.175 222.316 388.899 228.868C404.967 234.808 408.778 255.097 409.113 273.13C409.24 279.928 407.787 287.922 403.634 295.858C398.884 304.931 394.332 309.171 389.483 313.686C388.662 314.451 387.832 315.224 386.991 316.029C384.087 318.811 381.078 321.968 377.921 326.507C374.767 331.041 371.49 336.921 368.019 345.139C365.711 350.604 364.403 355.957 363.334 361.089Z" stroke="#DCD6F7"/>
<path d="M374.83 381.905C370.296 403.668 363.427 416.224 355.708 424.117C347.929 432.07 339.145 435.456 330.601 438.572C326.214 440.172 321.144 439.645 316.047 437.4C310.96 435.16 305.884 431.225 301.48 426.085C292.66 415.79 286.59 400.727 288.413 384.891C288.963 380.109 291.825 367.601 296.934 351.913C302.04 336.236 309.37 317.447 318.832 300.101C328.295 282.754 339.853 266.913 353.423 257.027C366.988 247.144 382.671 243.133 400.395 249.684C416.464 255.624 420.274 275.914 420.609 293.947C420.736 300.744 419.284 308.739 415.13 316.674C410.38 325.747 405.828 329.987 400.979 334.503C400.158 335.267 399.328 336.04 398.487 336.846C395.584 339.628 392.574 342.785 389.417 347.323C386.263 351.858 382.986 357.737 379.515 365.955C377.207 371.42 375.899 376.774 374.83 381.905Z" stroke="#DCD6F7"/>
<path d="M373.098 375.052C368.564 396.814 361.695 409.37 353.975 417.264C346.197 425.216 337.413 428.602 328.869 431.718C324.482 433.318 319.412 432.792 314.315 430.547C309.227 428.306 304.152 424.372 299.748 419.231C290.928 408.936 284.858 393.874 286.68 378.038C287.231 373.255 290.092 360.747 295.202 345.059C300.307 329.382 307.638 310.593 317.1 293.247C326.562 275.9 338.121 260.06 351.691 250.173C365.256 240.29 380.939 236.279 398.662 242.831C414.731 248.77 418.542 269.06 418.877 287.093C419.004 293.891 417.551 301.885 413.397 309.821C408.648 318.894 404.095 323.134 399.247 327.649C398.425 328.414 397.596 329.187 396.755 329.992C393.851 332.774 390.841 335.931 387.685 340.469C384.531 345.004 381.254 350.884 377.783 359.101C375.475 364.566 374.167 369.92 373.098 375.052Z" stroke="#DCD6F7"/>
<path d="M41.411 47.8837C46.012 47.1308 49.8202 47.4101 53.0296 48.4262C56.238 49.442 58.8793 51.2041 61.1333 53.4612C65.6614 57.9955 68.5961 64.4898 71.3825 70.8664C72.9366 74.4229 73.5855 79.3519 73.4117 84.8985C73.2382 90.4358 72.2462 96.5481 70.5537 102.448C68.8611 108.349 66.4722 114.022 63.5141 118.687C60.5519 123.359 57.0434 126.981 53.1311 128.836C50.7718 129.955 44.2634 131.605 35.7881 132.25C27.3304 132.895 16.9806 132.535 6.94773 129.683C-3.07949 126.833 -12.7773 121.5 -19.9729 112.2C-27.1693 102.9 -31.9003 89.5845 -31.9004 70.7098C-31.9004 57.7257 -26.6518 48.5224 -20.3638 41.9888C-17.1526 38.6523 -12.784 36.0269 -8.28354 34.9688C-3.79026 33.9123 0.793258 34.4232 4.52708 37.2894C5.80821 38.2728 6.9553 39.3641 8.11816 40.4996C8.26936 40.6473 8.4209 40.7957 8.57304 40.9448C9.58533 41.9365 10.6242 42.9544 11.7674 43.9299C14.414 46.1884 17.6331 48.2334 22.5394 49.3921C25.7288 50.1452 28.9182 50.0117 32.0642 49.5725C33.6374 49.3529 35.2078 49.0556 36.7647 48.7516C36.9811 48.7093 37.1972 48.667 37.4129 48.6246C38.7539 48.3617 40.0837 48.1009 41.411 47.8837Z" stroke="#FFD5BE"/>
<path d="M41.411 56.8837C46.012 56.1308 49.8202 56.4101 53.0296 57.4262C56.238 58.442 58.8793 60.2041 61.1333 62.4612C65.6614 66.9955 68.5961 73.4898 71.3825 79.8664C72.9366 83.4229 73.5855 88.3519 73.4117 93.8985C73.2382 99.4358 72.2462 105.548 70.5537 111.448C68.8611 117.349 66.4722 123.022 63.5141 127.687C60.5519 132.359 57.0434 135.981 53.1311 137.836C50.7718 138.955 44.2634 140.605 35.7881 141.25C27.3304 141.895 16.9806 141.535 6.94773 138.683C-3.07949 135.833 -12.7773 130.5 -19.9729 121.2C-27.1693 111.9 -31.9003 98.5845 -31.9004 79.7098C-31.9004 66.7257 -26.6518 57.5224 -20.3638 50.9888C-17.1526 47.6523 -12.784 45.0269 -8.28354 43.9688C-3.79026 42.9123 0.793258 43.4232 4.52708 46.2894C5.80821 47.2728 6.9553 48.3641 8.11816 49.4996C8.26936 49.6473 8.4209 49.7957 8.57304 49.9448C9.58533 50.9365 10.6242 51.9544 11.7674 52.9299C14.414 55.1884 17.6331 57.2334 22.5394 58.3921C25.7288 59.1452 28.9182 59.0117 32.0642 58.5725C33.6374 58.3529 35.2078 58.0556 36.7647 57.7516C36.9811 57.7093 37.1972 57.667 37.4129 57.6246C38.7539 57.3617 40.0837 57.1009 41.411 56.8837Z" stroke="#FFD5BE"/>
<path d="M49.411 38.8837C54.012 38.1308 57.8202 38.4101 61.0296 39.4262C64.238 40.442 66.8793 42.2041 69.1333 44.4612C73.6614 48.9955 76.5961 55.4898 79.3825 61.8664C80.9366 65.4229 81.5855 70.3519 81.4117 75.8985C81.2382 81.4358 80.2462 87.5481 78.5537 93.4481C76.8611 99.3489 74.4722 105.022 71.5141 109.687C68.5519 114.359 65.0434 117.981 61.1311 119.836C58.7718 120.955 52.2634 122.605 43.7881 123.25C35.3304 123.895 24.9806 123.535 14.9477 120.683C4.92051 117.833 -4.77734 112.5 -11.9729 103.2C-19.1693 93.9 -23.9003 80.5845 -23.9004 61.7098C-23.9004 48.7257 -18.6518 39.5224 -12.3638 32.9888C-9.15258 29.6523 -4.78399 27.0269 -0.283541 25.9688C4.20974 24.9123 8.79326 25.4232 12.5271 28.2894C13.8082 29.2728 14.9553 30.3641 16.1182 31.4996C16.2694 31.6473 16.4209 31.7957 16.573 31.9448C17.5853 32.9365 18.6242 33.9544 19.7674 34.9299C22.414 37.1884 25.6331 39.2334 30.5394 40.3921C33.7288 41.1452 36.9182 41.0117 40.0642 40.5725C41.6374 40.3529 43.2078 40.0556 44.7647 39.7516C44.9811 39.7093 45.1972 39.667 45.4129 39.6246C46.7539 39.3617 48.0837 39.1009 49.411 38.8837Z" stroke="#FFD5BE"/>
<path d="M46.411 42.8837C51.012 42.1308 54.8202 42.4101 58.0296 43.4262C61.238 44.442 63.8793 46.2041 66.1333 48.4612C70.6614 52.9955 73.5961 59.4898 76.3825 65.8664C77.9366 69.4229 78.5855 74.3519 78.4117 79.8985C78.2382 85.4358 77.2462 91.5481 75.5537 97.4481C73.8611 103.349 71.4722 109.022 68.5141 113.687C65.5519 118.359 62.0434 121.981 58.1311 123.836C55.7718 124.955 49.2634 126.605 40.7881 127.25C32.3304 127.895 21.9806 127.535 11.9477 124.683C1.92051 121.833 -7.77734 116.5 -14.9729 107.2C-22.1693 97.9 -26.9003 84.5845 -26.9004 65.7098C-26.9004 52.7257 -21.6518 43.5224 -15.3638 36.9888C-12.1526 33.6523 -7.78399 31.0269 -3.28354 29.9688C1.20974 28.9123 5.79326 29.4232 9.52708 32.2894C10.8082 33.2728 11.9553 34.3641 13.1182 35.4996C13.2694 35.6473 13.4209 35.7957 13.573 35.9448C14.5853 36.9365 15.6242 37.9544 16.7674 38.9299C19.414 41.1884 22.6331 43.2334 27.5394 44.3921C30.7288 45.1452 33.9182 45.0117 37.0642 44.5725C38.6374 44.3529 40.2078 44.0556 41.7647 43.7516C41.9811 43.7093 42.1972 43.667 42.4129 43.6246C43.7539 43.3617 45.0837 43.1009 46.411 42.8837Z" stroke="#FFD5BE"/>
<path d="M142.418 300.383C139.339 297.918 135.212 296.478 130.548 295.452C127.017 294.675 123.133 294.126 119.116 293.558C117.829 293.376 116.528 293.192 115.22 292.999C104.402 291.394 93.0794 289.089 84.6342 281.558C80.4687 277.844 77.9265 271.971 76.7195 264.871C75.5136 257.778 75.6505 249.518 76.7919 241.103C79.0766 224.261 85.368 206.922 92.8127 197.231C99.3086 188.774 107.742 185.427 117.07 183.127C119.697 182.48 122.402 181.914 125.155 181.339C132.142 179.88 139.433 178.356 146.511 175.261C147.087 175.009 147.666 174.757 148.246 174.505C153.258 172.325 158.378 170.098 163.034 167.189C167.324 164.508 171.612 160.769 176.008 156.703C177.237 155.566 178.474 154.405 179.722 153.232C182.951 150.198 186.257 147.092 189.702 144.163C199.254 136.039 209.734 129.396 222.152 129.655C224.073 129.695 226.272 129.681 228.695 129.664C237.099 129.608 248.203 129.534 259.811 131.669C274.745 134.416 290.435 140.811 302.112 155.572C304.131 158.125 305.676 161.027 306.729 164.115C310.291 174.557 313.01 188.734 314.221 201.89C314.826 208.465 315.053 214.776 314.822 220.227C314.591 225.689 313.9 230.248 312.694 233.347C310.016 240.185 304.202 253.724 297.085 266.757C293.526 273.274 289.647 279.655 285.676 285.006C281.699 290.365 277.658 294.653 273.784 297.023C265.913 301.84 250.863 308.589 235.404 314.361C219.938 320.137 204.144 324.904 194.778 325.792C185.497 326.657 175.427 322.742 166.131 317.357C157.047 312.095 148.779 305.476 142.808 300.695L142.418 300.383C142.418 300.383 142.418 300.383 142.418 300.383Z" stroke="#FFD5BE"/>
<path d="M137.5 296.523C134.6 293.849 130.584 292.125 126.003 290.776C122.534 289.754 118.698 288.936 114.731 288.09C113.459 287.819 112.174 287.544 110.884 287.26C100.204 284.905 89.0692 281.816 81.1697 273.715C77.2734 269.719 75.147 263.683 74.438 256.516C73.7297 249.356 74.4423 241.126 76.1677 232.811C79.6214 216.169 87.1066 199.311 95.2091 190.162C102.279 182.18 110.925 179.429 120.391 177.785C123.056 177.322 125.795 176.947 128.581 176.565C135.652 175.596 143.032 174.585 150.308 171.991C150.901 171.78 151.496 171.569 152.093 171.358C157.244 169.533 162.507 167.668 167.354 165.091C171.82 162.716 176.36 159.285 181.028 155.535C182.333 154.487 183.648 153.414 184.975 152.331C188.408 149.53 191.923 146.663 195.563 143.981C205.658 136.543 216.576 130.646 228.946 131.771C230.86 131.945 233.054 132.084 235.472 132.237C243.86 132.767 254.942 133.467 266.373 136.406C281.079 140.188 296.285 147.662 306.904 163.201C308.74 165.888 310.078 168.891 310.914 172.045C313.739 182.71 315.463 197.042 315.754 210.25C315.899 216.852 315.685 223.163 315.074 228.585C314.462 234.017 313.456 238.518 312.037 241.525C308.888 248.16 302.144 261.26 294.135 273.765C290.131 280.018 285.816 286.113 281.482 291.174C277.141 296.243 272.81 300.238 268.78 302.332C260.593 306.588 245.109 312.271 229.285 316.952C213.453 321.635 197.366 325.288 187.96 325.522C178.642 325.737 168.869 321.129 159.972 315.109C151.277 309.226 143.49 302.047 137.867 296.862L137.5 296.523C137.5 296.523 137.5 296.523 137.5 296.523Z" stroke="#FFD5BE"/>
<path d="M117.144 271.909C115.368 268.388 112.212 265.364 108.396 262.493C105.506 260.32 102.201 258.207 98.7832 256.022C97.6876 255.322 96.5804 254.615 95.4717 253.895C86.2973 247.942 76.9548 241.142 72.4004 230.784C70.154 225.675 70.281 219.277 72.1319 212.317C73.981 205.364 77.5366 197.907 82.0698 190.727C91.1439 176.355 104.069 163.196 114.866 157.472C124.288 152.478 133.349 152.936 142.79 154.718C145.448 155.22 148.144 155.829 150.887 156.45C157.849 158.024 165.114 159.667 172.838 159.791C173.467 159.801 174.099 159.813 174.731 159.824C180.196 159.923 185.778 160.024 191.221 159.311C196.237 158.654 201.692 157.034 207.379 155.161C208.969 154.638 210.577 154.095 212.199 153.546C216.397 152.128 220.694 150.676 225.044 149.442C237.107 146.019 249.4 144.329 260.588 149.723C262.32 150.558 264.326 151.458 266.537 152.449C274.205 155.889 284.337 160.433 294.009 167.197C306.453 175.899 318.069 188.233 322.56 206.51C323.337 209.672 323.536 212.953 323.212 216.199C322.115 227.177 318.7 241.203 314.337 253.674C312.156 259.907 309.742 265.741 307.267 270.604C304.788 275.476 302.266 279.337 299.882 281.655C294.605 286.763 283.693 296.664 271.806 305.563C265.862 310.013 259.682 314.207 253.848 317.425C248.004 320.648 242.547 322.869 238.039 323.417C228.878 324.529 212.385 324.417 195.925 323.247C179.456 322.077 163.109 319.853 154.22 316.771C145.419 313.703 137.885 305.959 131.666 297.199C125.588 288.639 120.816 279.184 117.37 272.355L117.145 271.909C117.144 271.909 117.144 271.909 117.144 271.909Z" stroke="#FFD5BE"/>
<path d="M53.474 292.165L53.4518 292.147L53.4278 292.133C51.4173 290.891 49.2726 288.431 47.188 285.26C45.1118 282.101 43.1271 278.287 41.4214 274.392C39.7161 270.498 38.2949 266.536 37.342 263.086C36.3841 259.618 35.9163 256.726 36.0732 254.946C36.4011 251.226 37.1745 245.782 40.4373 239.629C43.6996 233.477 49.4672 226.585 59.8291 220.007C63.8852 217.432 67.0775 216.489 69.7068 216.66C72.3203 216.83 74.465 218.107 76.4222 220.169C78.3891 222.24 80.1355 225.071 81.947 228.286C82.4563 229.191 82.9709 230.125 83.4962 231.079C84.8285 233.5 86.2304 236.046 87.7938 238.542C92.5265 246.096 98.7128 253.244 105.779 258.705C106.077 258.935 106.375 259.165 106.674 259.395C110.143 262.069 113.627 264.753 115.841 267.45C117.039 268.91 117.826 270.328 118.057 271.706C118.284 273.059 117.983 274.421 116.905 275.816C115.856 277.173 115.028 278.95 114.125 280.885L114.036 281.076C113.089 283.105 112.035 285.338 110.528 287.598C107.527 292.099 102.708 296.746 93.3372 299.906C92.6956 300.123 92.0571 300.343 91.4199 300.562C89.6481 301.173 87.8869 301.78 86.0999 302.295C76.1053 305.174 65.8361 301.878 53.474 292.165Z" stroke="#DCD6F7"/>
<path d="M43.763 280.895L43.7497 280.87L43.7337 280.847C42.3935 278.901 41.4208 275.786 40.7896 272.044C40.1611 268.316 39.8805 264.026 39.8876 259.774C39.8947 255.523 40.1893 251.324 40.7063 247.782C41.2261 244.222 41.9626 241.386 42.8232 239.82C44.621 236.547 47.5213 231.875 52.9857 227.557C58.4491 223.24 66.5034 219.254 78.6371 217.405C83.3868 216.682 86.6886 217.104 89.0264 218.319C91.3502 219.527 92.7989 221.56 93.7603 224.235C94.7265 226.924 95.1851 230.218 95.5484 233.891C95.6505 234.923 95.7451 235.986 95.8417 237.071C96.0867 239.823 96.3444 242.718 96.7705 245.632C98.0604 254.453 100.845 263.487 105.114 271.331C105.294 271.661 105.474 271.992 105.655 272.323C107.754 276.167 109.861 280.027 110.802 283.387C111.311 285.206 111.46 286.821 111.117 288.175C110.78 289.505 109.956 290.63 108.408 291.473C106.901 292.293 105.427 293.586 103.821 294.994L103.662 295.133C101.979 296.608 100.115 298.228 97.8252 299.69C93.2665 302.602 86.9839 304.914 77.1338 304.034C76.4594 303.973 75.7863 303.918 75.1147 303.862C73.247 303.708 71.3905 303.554 69.5475 303.306C59.2396 301.916 51.1672 294.764 43.763 280.895Z" stroke="#DCD6F7"/>
<path d="M39.3062 261.821L39.3078 261.793L39.3063 261.765C39.1779 259.405 39.9725 256.24 41.3858 252.718C42.7934 249.21 44.792 245.403 47.0155 241.779C49.2387 238.155 51.6801 234.726 53.9681 231.974C56.2685 229.208 58.3759 227.172 59.9271 226.285C63.1678 224.43 68.0792 221.957 74.9937 221.122C81.9069 220.288 90.8576 221.088 102.175 225.839C106.605 227.699 109.202 229.781 110.562 232.037C111.915 234.28 112.091 236.77 111.516 239.554C110.938 242.351 109.611 245.402 108.006 248.725C107.554 249.659 107.081 250.615 106.597 251.591C105.371 254.067 104.081 256.672 102.925 259.38C99.4249 267.579 97.0886 276.739 96.6401 285.658C96.6212 286.034 96.6028 286.41 96.5844 286.787C96.3702 291.161 96.1552 295.554 95.2056 298.911C94.6914 300.729 93.9763 302.185 92.9773 303.161C91.9961 304.12 90.706 304.651 88.9455 304.562C87.2321 304.476 85.3002 304.81 83.1959 305.174L82.9878 305.21C80.7824 305.591 78.3471 306 75.6306 306.054C70.2225 306.16 63.6561 304.856 55.7109 298.968C55.1669 298.565 54.6217 298.166 54.0776 297.769C52.5647 296.663 51.0608 295.563 49.6179 294.39C41.5476 287.829 38.3904 277.516 39.3062 261.821Z" stroke="#DCD6F7"/>
<path d="M132.778 292.244C130.076 289.37 126.193 287.365 121.719 285.694C118.332 284.428 114.564 283.339 110.667 282.212C109.418 281.851 108.155 281.487 106.888 281.111C96.4028 278.002 85.5161 274.129 78.2128 265.486C74.6106 261.224 72.9188 255.052 72.7213 247.852C72.5241 240.661 73.8203 232.502 76.1327 224.331C80.7613 207.976 89.4266 191.694 98.1592 183.144C105.779 175.685 114.599 173.556 124.158 172.589C126.849 172.317 129.607 172.138 132.413 171.955C139.536 171.492 146.969 171.008 154.411 168.938C155.018 168.77 155.626 168.602 156.236 168.433C161.504 166.979 166.887 165.494 171.905 163.268C176.529 161.216 181.3 158.117 186.224 154.709C187.6 153.756 188.988 152.78 190.389 151.794C194.012 149.244 197.722 146.634 201.544 144.217C212.142 137.516 223.452 132.411 235.71 134.413C237.607 134.723 239.786 135.017 242.187 135.342C250.516 136.467 261.52 137.954 272.713 141.699C287.113 146.516 301.748 155.053 311.235 171.308C312.876 174.119 313.997 177.21 314.606 180.415C316.666 191.254 317.366 205.672 316.716 218.868C316.391 225.463 315.73 231.743 314.735 237.108C313.738 242.483 312.414 246.9 310.785 249.798C307.172 256.193 299.513 268.78 290.635 280.684C286.196 286.636 281.459 292.409 276.776 297.149C272.085 301.896 267.481 305.573 263.313 307.376C254.844 311.038 238.995 315.606 222.878 319.149C206.753 322.694 190.446 325.194 181.048 324.758C171.738 324.31 162.318 319.019 153.871 312.381C145.616 305.895 138.36 298.179 133.12 292.608L132.778 292.244C132.778 292.244 132.778 292.244 132.778 292.244Z" stroke="#FFD5BE"/>
<path d="M220.5 274C222.1 275.6 222.167 277.667 222 278.5" stroke="#2E317D" stroke-linecap="round"/>
<path d="M239.221 259.52C231.119 273.155 230.086 288.515 230.582 294.49" stroke="#2E317D" stroke-linecap="round"/>
<path fill-rule="evenodd" clip-rule="evenodd" d="M139.42 229.018C136.659 229.018 134.42 231.256 134.42 234.018V249.412C134.42 251.517 135.722 253.319 137.565 254.056C138.159 254.293 138.553 254.953 138.553 255.593C138.553 257.448 139.165 259.676 138.105 261.199L135.079 265.545C133.852 267.308 131.932 268.428 130.129 269.596C127.38 271.378 125.561 274.474 125.561 277.994V350.121C125.561 355.644 130.038 360.121 135.561 360.121H203.554C209.076 360.121 213.554 355.644 213.554 350.121V277.994C213.554 275.057 212.287 272.416 210.271 270.586C208.794 269.246 207.232 267.91 206.367 266.113L204.477 262.183C203.547 260.25 204.696 257.737 204.696 255.593C204.696 254.876 205.074 254.119 205.698 253.766C207.216 252.908 208.24 251.279 208.24 249.412V234.018C208.24 231.256 206.001 229.018 203.24 229.018H139.42Z" fill="#FDFBFC"/>
<path fill-rule="evenodd" clip-rule="evenodd" d="M139.42 229.018C136.659 229.018 134.42 231.256 134.42 234.018V249.412C134.42 251.517 135.722 253.319 137.565 254.056C138.159 254.293 138.553 254.953 138.553 255.593C138.553 257.448 139.165 259.676 138.105 261.199L135.079 265.545C133.852 267.308 131.932 268.428 130.129 269.596C127.38 271.378 125.561 274.474 125.561 277.994V350.121C125.561 355.644 130.038 360.121 135.561 360.121H203.554C209.076 360.121 213.554 355.644 213.554 350.121V277.994C213.554 275.057 212.287 272.416 210.271 270.586C208.794 269.246 207.232 267.91 206.367 266.113L204.477 262.183C203.547 260.25 204.696 257.737 204.696 255.593C204.696 254.876 205.074 254.119 205.698 253.766C207.216 252.908 208.24 251.279 208.24 249.412V234.018C208.24 231.256 206.001 229.018 203.24 229.018H139.42Z" fill="url(#paint0_linear_7124_63589)" fill-opacity="0.3"/>
<rect x="214.779" y="267.994" width="94.1959" height="40.2199" rx="20.1099" transform="rotate(58.9283 214.779 267.994)" fill="#FDFBFC"/>
<rect x="214.779" y="267.996" width="94.1959" height="40.2199" rx="20.1099" transform="rotate(58.9283 214.779 267.996)" fill="url(#paint1_linear_7124_63589)" fill-opacity="0.3"/>
<path d="M160.536 228.748C155.684 225.45 149.69 224.13 146.835 226.439C143.981 228.748 141.127 229.078 142.839 231.057C144.552 233.036 150.832 230.727 152.83 229.738" stroke="#2E317D" stroke-linecap="round"/>
<path d="M204.979 328.161C220.007 334.97 237.637 323.519 239.949 310.52" stroke="#FDFBFC" stroke-linecap="round"/>
<path d="M137.953 254.42H204.981" stroke="#FDFBFC" stroke-linecap="round"/>
<path d="M139.408 257.334H204.25" stroke="#FDFBFC" stroke-linecap="round"/>
<path d="M125.564 287.934H170.464C171.016 287.934 171.464 288.381 171.464 288.934V339.39C171.464 339.942 171.016 340.39 170.464 340.39H125.564" stroke="#FDFBFC" stroke-linecap="round"/>
<ellipse cx="101.931" cy="187.158" rx="17.9626" ry="10.9355" transform="rotate(137.974 101.931 187.158)" fill="#6568BC"/>
<ellipse cx="14.0615" cy="9.50644" rx="14.0615" ry="9.50644" transform="matrix(0.663249 0.748399 0.748399 -0.663249 182.844 113.477)" fill="#6568BC"/>
<ellipse cx="18.7096" cy="15.1932" rx="18.7096" ry="15.1932" transform="matrix(-0.172146 0.985072 0.985072 0.172146 113.693 327.641)" fill="#6568BC"/>
<ellipse cx="166.584" cy="154.748" rx="11.0296" ry="6.71473" transform="rotate(-72.4568 166.584 154.748)" fill="#FEA28D"/>
<ellipse cx="94.267" cy="209.298" rx="12.7473" ry="12.128" transform="rotate(-118.994 94.267 209.298)" fill="#FEA28D"/>
<ellipse cx="257.943" cy="209.416" rx="12.031" ry="9.6503" transform="rotate(-118.994 257.943 209.416)" fill="#FEA28D"/>
<path d="M97.8809 184.479L102.981 189.578" stroke="#FDFBFC" stroke-linecap="round"/>
<path d="M104.438 183.021L97.8804 190.307" stroke="#FDFBFC" stroke-linecap="round"/>
<path d="M262.33 207.012L254.89 212.401" stroke="#FDFBFC" stroke-linecap="round"/>
<path d="M261.305 213.426L255.915 205.986" stroke="#FDFBFC" stroke-linecap="round"/>
<path d="M90.5938 207.064L97.8794 212.893" stroke="#FDFBFC" stroke-linecap="round"/>
<path d="M97.8809 207.064L90.5952 212.893" stroke="#FDFBFC" stroke-linecap="round"/>
<path d="M162.277 154.887L168.669 157.176" stroke="#FDFBFC" stroke-linecap="round"/>
<path d="M166.617 152.836L164.328 159.227" stroke="#FDFBFC" stroke-linecap="round"/>
<path d="M197.695 113.078L202.067 118.178" stroke="#FDFBFC" stroke-linecap="round"/>
<path d="M202.066 113.078L197.695 118.178" stroke="#FDFBFC" stroke-linecap="round"/>
<path d="M120.102 346.215L128.748 349.319" stroke="#FDFBFC" stroke-linecap="round"/>
<path d="M125.975 343.443L122.871 352.09" stroke="#FDFBFC" stroke-linecap="round"/>
<path d="M213.774 163.394C206.832 147.705 188.685 154.808 185.836 165.119C181.492 178.434 190.936 196.32 198.771 195.61C207.166 194.849 221.234 180.255 213.774 163.394Z" fill="#FDFBFC" stroke="#2E317D" stroke-linecap="round"/>
<path d="M196.179 155.045C197.044 158.575 200.86 165.344 207.165 166.826C207.749 166.963 208.107 167.547 208.151 168.145C208.286 170.014 210.515 169.954 211.088 172.647C211.756 175.788 208.216 177.12 211.391 181.133C214.767 185.399 220.875 188.401 225.986 182.163C231.096 175.925 224.806 175.596 226.651 171.253C228.495 166.91 230.01 168.855 229.371 164.99C228.733 161.125 225.746 161.51 225.048 159.092C224.351 156.673 222.832 153.062 220.624 150.365C218.416 147.667 215.366 147.833 212.655 145.042C209.944 142.252 201.424 143.281 196.745 146.059C191.493 149.179 179.257 144.912 180.758 154.244C182.336 164.054 177.954 163.256 176.231 167.459C173.574 173.942 178.168 174.999 180.536 179.079C183.24 183.737 178.882 184.082 183.666 185.798C187.011 186.997 190.891 182.76 190.477 180.498C190.063 178.236 193.426 177.504 192.538 174.426C191.65 171.347 189.695 169.529 189.12 165.884C188.572 162.407 196.697 159.679 196.179 155.045Z" fill="#2E317D" stroke="#2E317D" stroke-linecap="round"/>
<path d="M196.673 195.499C196.829 200.152 197.563 203.708 193.151 207.676C188.739 211.645 173.429 215.715 164.773 229.641" stroke="#2E317D" stroke-linecap="round"/>
<path d="M235.99 255.004C246.872 268.464 251.844 272.456 256.017 281.356" stroke="#2E317D" stroke-linecap="round"/>
<path d="M192.226 208.629C191.172 241.995 216.17 225.281 218.231 205.253" stroke="#2E317D" stroke-linecap="round"/>
<path d="M212.511 184.999C210.482 196.882 213.593 200.423 216.302 203.245C219.011 206.067 235.442 210.834 250.03 231.527C264.483 252.028 271.435 266.729 274.408 289.795C274.459 290.189 274.273 290.579 273.929 290.778C263.194 296.98 247.872 300.947 236.1 304.75C224.121 308.619 214.563 309.061 212.074 311.018C209.586 312.975 202.002 316.273 200.164 316.358C198.326 316.443 189.7 313.158 192.957 311.902C196.215 310.646 200.508 307.869 202.346 307.784C204.184 307.699 206.505 308.322 209.698 307.444C220.976 304.344 240.646 283.54 257.122 281.304" stroke="#2E317D" stroke-linecap="round"/>
<defs>
<linearGradient id="paint0_linear_7124_63589" x1="169.557" y1="229.018" x2="169.557" y2="360.121" gradientUnits="userSpaceOnUse">
<stop stop-color="#4D50A4"/>
<stop offset="1" stop-color="#FEA28D"/>
</linearGradient>
<linearGradient id="paint1_linear_7124_63589" x1="308.7" y1="291.203" x2="216.798" y2="285.814" gradientUnits="userSpaceOnUse">
<stop stop-color="#2E317D"/>
<stop offset="1" stop-color="#FEA28D"/>
</linearGradient>
</defs>
</svg>
