<svg width="28" height="28" viewBox="0 0 28 28" fill="none" xmlns="http://www.w3.org/2000/svg">
<path fill-rule="evenodd" clip-rule="evenodd" d="M13.6667 25.3333C20.11 25.3333 25.3333 20.11 25.3333 13.6667C25.3333 7.22334 20.11 2 13.6667 2C7.22334 2 2 7.22334 2 13.6667C2 20.11 7.22334 25.3333 13.6667 25.3333ZM13.6667 23C15.8235 23 17.8094 22.2684 19.3899 21.0399L16.0373 17.6872C15.3425 18.0978 14.5321 18.3333 13.6667 18.3333C12.8012 18.3333 11.9908 18.0978 11.2961 17.6872L7.94343 21.0399C9.5239 22.2684 11.5098 23 13.6667 23ZM9.64614 16.0373C9.23559 15.3425 9 14.5321 9 13.6667C9 11.4922 10.4872 9.66507 12.5 9.14702V4.40554C7.89597 4.97966 4.33333 8.90711 4.33333 13.6667C4.33333 15.8235 5.06493 17.8095 6.29351 19.3899L9.64614 16.0373ZM14.8333 9.14702V4.40554C19.4374 4.97966 23 8.90711 23 13.6667C23 15.8235 22.2684 17.8095 21.0398 19.3899L17.6872 16.0373C18.0977 15.3425 18.3333 14.5321 18.3333 13.6667C18.3333 11.4922 16.8461 9.66507 14.8333 9.14702ZM16 13.6667C16 14.9553 14.9553 16 13.6667 16C12.378 16 11.3333 14.9553 11.3333 13.6667C11.3333 12.378 12.378 11.3333 13.6667 11.3333C14.9553 11.3333 16 12.378 16 13.6667Z" fill="#4D50A4"/>
</svg>
