<svg width="28" height="28" viewBox="0 0 28 28" fill="none" xmlns="http://www.w3.org/2000/svg">
<path fill-rule="evenodd" clip-rule="evenodd" d="M11.3167 4.10924C12.3227 1.74093 15.6787 1.74093 16.6847 4.10923L18.5016 8.38674L22.9904 8.76278C25.5304 8.97555 26.5943 12.1157 24.7069 13.829L21.2741 16.9452L22.3978 22.1207C22.9655 24.7356 20.0073 26.671 17.8394 25.1032L14.0007 22.3271L10.162 25.1032C7.99404 26.671 5.0359 24.7355 5.60361 22.1207L6.72727 16.9452L3.29442 13.829C1.407 12.1157 2.47089 8.97555 5.01086 8.76278L9.49984 8.38674L11.3167 4.10924ZM14.5375 5.02159C14.3363 4.54793 13.6651 4.54793 13.4639 5.02159L11.5095 9.62294C11.2557 10.2205 10.692 10.6284 10.0451 10.6826L5.20557 11.088C4.69757 11.1305 4.4848 11.7586 4.86228 12.1012L8.5446 15.4439C9.00768 15.8642 9.21124 16.4998 9.07853 17.1111L7.88339 22.6159C7.76985 23.1388 8.36148 23.5259 8.79506 23.2124L12.9755 20.1891C13.5874 19.7466 14.414 19.7466 15.0259 20.1891L19.2063 23.2124C19.6399 23.5259 20.2316 23.1388 20.118 22.6159L18.9229 17.1111C18.7902 16.4998 18.9937 15.8642 19.4568 15.4439L23.139 12.1012C23.5165 11.7586 23.3037 11.1305 22.7957 11.088L17.9563 10.6826C17.3094 10.6284 16.7457 10.2205 16.4919 9.62294L14.5375 5.02159Z" fill="#4D50A4"/>
</svg>
