<svg width="32" height="33" viewBox="0 0 32 33" fill="none" xmlns="http://www.w3.org/2000/svg">
<circle cx="16" cy="16.2015" r="16" fill="#6568BC"/>
<path d="M12.8827 22.1069H12.868C12.7224 22.1053 12.5787 22.0737 12.4459 22.014C12.313 21.9544 12.1939 21.868 12.096 21.7602L8.25602 17.4936C8.1664 17.3949 8.09775 17.2791 8.05422 17.1532C8.0107 17.0273 7.9932 16.8938 8.0028 16.7609C8.0124 16.628 8.0489 16.4984 8.11007 16.38C8.17125 16.2617 8.25583 16.1569 8.35869 16.0722C8.56916 15.8974 8.83876 15.8102 9.11173 15.8286C9.3847 15.8469 9.64018 15.9695 9.82535 16.1709L12.9 19.5842L22.184 9.85088C22.3749 9.65291 22.6348 9.53628 22.9096 9.52535C23.1843 9.51442 23.4527 9.61003 23.6587 9.79222C23.759 9.87998 23.8404 9.9872 23.898 10.1074C23.9557 10.2276 23.9883 10.3582 23.9939 10.4914C23.9995 10.6245 23.978 10.7574 23.9307 10.882C23.8834 11.0066 23.8113 11.1203 23.7187 11.2162L13.6454 21.7722C13.5472 21.8763 13.4291 21.9596 13.298 22.0171C13.167 22.0746 13.0258 22.1051 12.8827 22.1069V22.1069Z" fill="white"/>
</svg>
